<?xml version="1.0" encoding="iso-8859-1"?>
<!-- Generator: Adobe Illustrator 19.0.0, SVG Export Plug-In . SVG Version: 6.00 Build 0)  -->
<svg version="1.1" id="Layer_1" xmlns="http://www.w3.org/2000/svg" xmlns:xlink="http://www.w3.org/1999/xlink" x="0px" y="0px"
	 viewBox="0 0 512 512" style="enable-background:new 0 0 512 512;" xml:space="preserve">
<path d="M47.505,0v512h416.99V0H47.505z M448.66,496.165H63.34V15.835h385.32V496.165z"/>
<path d="M422.268,42.227H89.732v427.546h332.536V42.227z M406.433,58.062v205.856H105.567V58.062H406.433z M256,374.763
	c10.186,0,18.474,8.288,18.474,18.474c0,10.186-8.288,18.474-18.474,18.474c-10.186,0-18.474-8.288-18.474-18.474
	C237.526,383.051,245.814,374.763,256,374.763z M105.567,300.866v-21.113h300.866v21.113H105.567z M105.567,453.938V316.701h142.515
	v43.159c-15.112,3.585-26.392,17.184-26.392,33.377c0,18.919,15.392,34.309,34.309,34.309c18.918,0,34.309-15.391,34.309-34.309
	c0-16.193-11.28-29.792-26.392-33.377v-43.159h142.515v137.237H105.567z"/>
<path d="M254.205,110.845c42.976,0,57.151,35.604,57.722,37.09l14.827-5.561c-0.726-1.934-18.386-47.364-72.549-47.364
	c-28.289,0-46.041,12.876-55.952,23.679c-10.701,11.663-14.73,23.455-14.896,23.951l15.004,5.062
	C198.881,146.197,211.551,110.845,254.205,110.845z"/>
<path d="M254.205,137.237c-29.95,0-38.815,25.433-39.177,26.515l15.015,5.031c0.053-0.157,5.48-15.712,24.163-15.712
	c18.686,0,24.972,15.382,25.207,15.977l14.827-5.561C293.837,162.417,284.052,137.237,254.205,137.237z"/>
<path d="M254.205,179.464c-16.008,0-29.031,13.024-29.031,29.031s13.023,29.031,29.031,29.031s29.031-13.024,29.031-29.031
	S270.212,179.464,254.205,179.464z M254.205,221.691c-7.277,0-13.196-5.919-13.196-13.196c0-7.277,5.919-13.196,13.196-13.196
	c7.277,0,13.196,5.919,13.196,13.196C267.401,215.772,261.481,221.691,254.205,221.691z"/>
<rect x="124.041" y="73.897" width="21.113" height="15.835"/>
<rect x="124.041" y="232.247" width="21.113" height="15.835"/>
<rect x="124.041" y="200.577" width="21.113" height="15.835"/>
<rect x="155.711" y="232.247" width="21.113" height="15.835"/>
<rect x="335.175" y="73.897" width="21.113" height="15.835"/>
<rect x="366.845" y="105.567" width="21.113" height="15.835"/>
<rect x="366.845" y="232.247" width="21.113" height="15.835"/>
<rect x="366.845" y="73.897" width="21.113" height="15.835"/>
<g>
</g>
<g>
</g>
<g>
</g>
<g>
</g>
<g>
</g>
<g>
</g>
<g>
</g>
<g>
</g>
<g>
</g>
<g>
</g>
<g>
</g>
<g>
</g>
<g>
</g>
<g>
</g>
<g>
</g>
</svg>
