<?xml version="1.0" encoding="iso-8859-1"?>
<!-- Generator: Adobe Illustrator 19.0.0, SVG Export Plug-In . SVG Version: 6.00 Build 0)  -->
<svg version="1.1" id="Capa_1" xmlns="http://www.w3.org/2000/svg" xmlns:xlink="http://www.w3.org/1999/xlink" x="0px" y="0px"
	 viewBox="0 0 512 512" style="enable-background:new 0 0 512 512;" xml:space="preserve">
<g>
	<g>
		<path d="M480,416V16c0-8.837-7.163-16-16-16H48c-8.837,0-16,7.163-16,16v400H0v32h32v48c0,8.837,7.163,16,16,16h416
			c8.837,0,16-7.163,16-16v-48h32v-32H480z M448,480H64v-32h384V480z M448,416H64V240h176v64h-16v32h64v-32h-16v-64h176V416z
			 M448,208H64V32h384V208z"/>
	</g>
</g>
<g>
</g>
<g>
</g>
<g>
</g>
<g>
</g>
<g>
</g>
<g>
</g>
<g>
</g>
<g>
</g>
<g>
</g>
<g>
</g>
<g>
</g>
<g>
</g>
<g>
</g>
<g>
</g>
<g>
</g>
</svg>
