<?xml version="1.0" encoding="iso-8859-1"?>
<!-- Generator: Adobe Illustrator 19.0.0, SVG Export Plug-In . SVG Version: 6.00 Build 0)  -->
<svg version="1.1" id="Layer_1" xmlns="http://www.w3.org/2000/svg" xmlns:xlink="http://www.w3.org/1999/xlink" x="0px" y="0px"
	 viewBox="0 0 512 512" style="enable-background:new 0 0 512 512;" xml:space="preserve">
<g>
	<g>
		<path d="M356,368H160c-2.208,0-4,1.788-4,4c0,2.212,1.792,4,4,4h196c2.208,0,4-1.788,4-4C360,369.788,358.208,368,356,368z"/>
	</g>
</g>
<g>
	<g>
		<path d="M348,392H164c-2.208,0-4,1.788-4,4c0,2.212,1.792,4,4,4h184c2.208,0,4-1.788,4-4C352,393.788,350.208,392,348,392z"/>
	</g>
</g>
<g>
	<g>
		<path d="M244,88c-2.208,0-4,1.792-4,4v252h-92c-2.208,0-4,1.788-4,4c0,2.212,1.792,4,4,4h96c2.208,0,4-1.788,4-4V92
			C248,89.792,246.208,88,244,88z"/>
	</g>
</g>
<g>
	<g>
		<path d="M364,344h-92V92c0-2.208-1.792-4-4-4s-4,1.792-4,4v256c0,2.212,1.792,4,4,4h96c2.208,0,4-1.788,4-4
			C368,345.788,366.208,344,364,344z"/>
	</g>
</g>
<g>
	<g>
		<path d="M114.3,292.164C137.972,273.18,260,167.324,260,4c0-2.208-1.792-4-4-4H44c-2.208,0-4,1.792-4,4v504c0,2.212,1.792,4,4,4
			h132c2.208,0,4-1.788,4-4C180,501.512,179.244,351.2,114.3,292.164z M48,504V8h203.976
			c-2.18,173.432-144.884,279.708-146.336,280.768c-1,0.728-1.604,1.876-1.64,3.112s0.504,2.42,1.456,3.204
			c59.848,49.292,65.876,183.944,66.476,208.916H48z"/>
	</g>
</g>
<g>
	<g>
		<path d="M108,288H48c-2.208,0-4,1.788-4,4c0,2.212,1.792,4,4,4h60c2.208,0,4-1.788,4-4C112,289.788,110.208,288,108,288z"/>
	</g>
</g>
<g>
	<g>
		<path d="M196,0c-2.208,0-4,1.792-4,4c0,53.092-9.336,105.108-27.752,154.604c-0.772,2.072,0.28,4.376,2.352,5.144
			c0.46,0.168,0.932,0.252,1.396,0.252c1.624,0,3.152-0.996,3.748-2.604C190.496,111.004,200,58.048,200,4
			C200,1.792,198.208,0,196,0z"/>
	</g>
</g>
<g>
	<g>
		<path d="M161.576,176.324c-2.02-0.876-4.38,0.072-5.248,2.104C126.244,248.772,87.424,288.8,87.036,289.2
			c-1.464,1.488-1.532,3.848-0.164,5.424c19.304,22.172,33.684,65.708,41.58,125.896c0.264,2.016,1.984,3.48,3.96,3.48
			c0.172,0,0.348-0.012,0.52-0.036c2.192-0.284,3.736-2.296,3.448-4.484c-7.908-60.256-21.748-103.064-41.156-127.324
			c9.224-10.096,41.804-48.268,68.456-110.584C164.552,179.544,163.608,177.192,161.576,176.324z"/>
	</g>
</g>
<g>
	<g>
		<path d="M139.852,451.624c-0.188-2.2-2.144-3.884-4.328-3.64c-2.204,0.188-3.832,2.124-3.644,4.328
			c2.728,31.776,2.76,55.452,2.76,55.688c0,2.212,1.792,4,4,4s4-1.788,4.004-4C142.644,507.76,142.612,483.768,139.852,451.624z"/>
	</g>
</g>
<g>
	<g>
		<path d="M120,0c-2.208,0-4,1.792-4,4c0,15.952-0.424,32.036-1.264,47.8c-0.12,2.208,1.572,4.092,3.78,4.208
			c0.072,0.004,0.144,0.004,0.216,0.004c2.108,0,3.876-1.656,3.988-3.788C123.572,36.32,124,20.096,124,4C124,1.792,122.208,0,120,0
			z"/>
	</g>
</g>
<g>
	<g>
		<path d="M119.652,92.392c0.216-2.2-1.388-4.16-3.584-4.38c-2.184-0.208-4.16,1.388-4.38,3.584
			c-12.436,124.316-47.976,197.908-48.332,198.64c-0.52,1.056-0.548,2.28-0.08,3.36C87.04,348.192,87.32,506.412,87.32,508
			c0,2.212,1.792,4,4,4s4-1.788,4.008-4.004c0-6.5-0.276-158.46-24-215.916C76.712,280.332,108.1,207.88,119.652,92.392z"/>
	</g>
</g>
<g>
	<g>
		<path d="M468,0H256c-2.208,0-4,1.792-4,4c0,163.324,122.028,269.18,145.7,288.164C332.756,351.2,332,501.512,332,508
			c0,2.212,1.792,4,4,4h132c2.208,0,4-1.788,4-4V4C472,1.792,470.208,0,468,0z M464,504H340.064
			c0.596-24.968,6.604-159.6,66.476-208.916c0.956-0.788,1.492-1.972,1.456-3.204s-0.64-2.38-1.64-3.112
			C404.904,287.708,262.2,181.432,260.024,8H464V504z"/>
	</g>
</g>
<g>
	<g>
		<path d="M464,288h-60c-2.208,0-4,1.788-4,4c0,2.212,1.792,4,4,4h60c2.208,0,4-1.788,4-4C468,289.788,466.208,288,464,288z"/>
	</g>
</g>
<g>
	<g>
		<path d="M347.752,158.604C329.336,109.104,320,57.088,320,4c0-2.208-1.792-4-4-4s-4,1.792-4,4c0,54.044,9.504,107,28.256,157.392
			c0.596,1.612,2.124,2.608,3.748,2.608c0.464,0,0.936-0.08,1.396-0.252C347.468,162.976,348.524,160.676,347.752,158.604z"/>
	</g>
</g>
<g>
	<g>
		<path d="M424.964,289.196c-0.388-0.396-39.164-40.32-69.292-110.768c-0.864-2.032-3.22-2.972-5.248-2.104
			s-2.972,3.216-2.104,5.248c26.652,62.316,59.232,100.488,68.456,110.584c-19.412,24.264-33.252,67.068-41.156,127.324
			c-0.288,2.192,1.256,4.2,3.448,4.484c0.176,0.024,0.352,0.036,0.524,0.036c1.976,0,3.696-1.464,3.956-3.48
			c7.896-60.184,22.272-103.72,41.58-125.896C426.5,293.052,426.428,290.688,424.964,289.196z"/>
	</g>
</g>
<g>
	<g>
		<path d="M376.48,447.984c-2.204-0.248-4.14,1.44-4.328,3.64c-2.76,32.144-2.792,56.136-2.792,56.376c0,2.212,1.792,4,4,4
			s4-1.788,4.004-4c0-0.236,0.028-23.884,2.76-55.688C380.312,450.108,378.68,448.172,376.48,447.984z"/>
	</g>
</g>
<g>
	<g>
		<path d="M396,4c0-2.208-1.792-4-4-4s-4,1.792-4,4c0,16.096,0.428,32.32,1.276,48.224c0.116,2.132,1.88,3.788,3.992,3.788
			c0.072,0,0.148-0.004,0.22-0.004c2.204-0.12,3.896-2.004,3.78-4.208C396.424,36.036,396,19.952,396,4z"/>
	</g>
</g>
<g>
	<g>
		<path d="M448.648,290.24c-0.356-0.728-35.896-74.32-48.328-198.64c-0.22-2.2-2.18-3.788-4.38-3.584
			c-2.2,0.22-3.804,2.18-3.584,4.38c11.552,115.488,42.936,187.94,48.32,199.688C416.952,349.54,416.68,501.496,416.68,508
			c0,2.212,1.792,4,4,4s4-1.788,4.004-3.996c0-1.592,0.276-159.804,24.044-214.404C449.196,292.52,449.164,291.296,448.648,290.24z"
			/>
	</g>
</g>
<g>
</g>
<g>
</g>
<g>
</g>
<g>
</g>
<g>
</g>
<g>
</g>
<g>
</g>
<g>
</g>
<g>
</g>
<g>
</g>
<g>
</g>
<g>
</g>
<g>
</g>
<g>
</g>
<g>
</g>
</svg>
