<?xml version="1.0" encoding="iso-8859-1"?>
<!-- Generator: Adobe Illustrator 19.0.0, SVG Export Plug-In . SVG Version: 6.00 Build 0)  -->
<svg version="1.1" id="Layer_1" xmlns="http://www.w3.org/2000/svg" xmlns:xlink="http://www.w3.org/1999/xlink" x="0px" y="0px"
	 viewBox="0 0 512 512" style="enable-background:new 0 0 512 512;" xml:space="preserve">
<g transform="translate(1 1)">
	<g>
		<g>
			<path d="M485.4,459.8h-17.067H459.8V48.824c10.103-3.391,17.067-12.734,17.067-24.224c0-14.507-11.093-25.6-25.6-25.6H58.733
				c-14.507,0-25.6,11.093-25.6,25.6c0,11.362,7.329,20.629,17.067,24.113V459.8h-8.533H24.6c-5.12,0-8.533,3.413-8.533,8.533
				s3.413,8.533,8.533,8.533h8.533v8.533c0,14.507,11.093,25.6,25.6,25.6h392.533c14.507,0,25.6-11.093,25.6-25.6v-8.533h8.533
				c5.12,0,8.533-3.413,8.533-8.533S490.52,459.8,485.4,459.8z M58.733,16.067h392.533c5.12,0,8.533,3.413,8.533,8.533
				s-3.413,8.533-8.533,8.533H58.733c-5.12,0-8.533-4.267-8.533-8.533S54.467,16.067,58.733,16.067z M67.267,50.2h375.467v409.6
				h-17.067V323.267V75.8c0-5.12-3.413-8.533-8.533-8.533H92.867c-5.12,0-8.533,3.413-8.533,8.533v247.467V459.8H67.267V50.2z
				 M408.6,314.733H101.4v-230.4h307.2V314.733z M101.4,331.8h307.2v128H101.4V331.8z M459.8,485.4c0,5.12-3.413,8.533-8.533,8.533
				H58.733c-5.12,0-8.533-3.413-8.533-8.533v-8.533h8.533h34.133h324.267h34.133h8.533V485.4z"/>
			<path d="M127,144.067c2.56,0,4.267-0.853,5.973-2.56l25.6-25.6c3.413-3.413,3.413-8.533,0-11.947s-8.533-3.413-11.947,0
				l-25.6,25.6c-3.413,3.413-3.413,8.533,0,11.947C122.733,143.213,124.44,144.067,127,144.067z"/>
			<path d="M189.293,158.573c1.707,1.707,3.413,2.56,5.973,2.56s4.267-0.853,5.973-2.56l42.667-42.667
				c3.413-3.413,3.413-8.533,0-11.947s-8.533-3.413-11.947,0l-42.667,42.667C185.88,150.04,185.88,155.16,189.293,158.573z"/>
			<path d="M127,229.4c2.56,0,4.267-0.853,5.973-2.56l17.067-17.067c3.413-3.413,3.413-8.533,0-11.947s-8.533-3.413-11.947,0
				l-17.067,17.067c-3.413,3.413-3.413,8.533,0,11.947C122.733,228.547,124.44,229.4,127,229.4z"/>
			<path d="M127,186.733c2.56,0,4.267-0.853,5.973-2.56l17.067-17.067c3.413-3.413,3.413-8.533,0-11.947s-8.533-3.413-11.947,0
				l-17.067,17.067c-3.413,3.413-3.413,8.533,0,11.947C122.733,185.88,124.44,186.733,127,186.733z"/>
			<path d="M163.693,141.507c1.707,1.707,3.413,2.56,5.973,2.56c2.56,0,4.267-0.853,5.973-2.56l25.6-25.6
				c3.413-3.413,3.413-8.533,0-11.947s-8.533-3.413-11.947,0l-25.6,25.6C160.28,132.973,160.28,138.093,163.693,141.507z"/>
			<path d="M169.667,169.667c-5.12,0-8.533,3.413-8.533,8.533s3.413,8.533,8.533,8.533c5.12,0,8.533-3.413,8.533-8.533
				S174.787,169.667,169.667,169.667z"/>
		</g>
	</g>
</g>
<g>
</g>
<g>
</g>
<g>
</g>
<g>
</g>
<g>
</g>
<g>
</g>
<g>
</g>
<g>
</g>
<g>
</g>
<g>
</g>
<g>
</g>
<g>
</g>
<g>
</g>
<g>
</g>
<g>
</g>
</svg>
