<?xml version="1.0" encoding="UTF-8" standalone="no"?>
<!-- Generator: Adobe Illustrator 19.0.0, SVG Export Plug-In . SVG Version: 6.00 Build 0)  -->

<svg
   xmlns:dc="http://purl.org/dc/elements/1.1/"
   xmlns:cc="http://creativecommons.org/ns#"
   xmlns:rdf="http://www.w3.org/1999/02/22-rdf-syntax-ns#"
   xmlns:svg="http://www.w3.org/2000/svg"
   xmlns="http://www.w3.org/2000/svg"
   xmlns:sodipodi="http://sodipodi.sourceforge.net/DTD/sodipodi-0.dtd"
   xmlns:inkscape="http://www.inkscape.org/namespaces/inkscape"
   version="1.1"
   id="Layer_1"
   x="0px"
   y="0px"
   viewBox="0 0 66.374939 61.644241"
   xml:space="preserve"
   sodipodi:docname="014-time-1.svg"
   inkscape:version="0.92.2 (unknown)"
   width="66.374939"
   height="61.644241"><metadata
     id="metadata5612"><rdf:RDF><cc:Work
         rdf:about=""><dc:format>image/svg+xml</dc:format><dc:type
           rdf:resource="http://purl.org/dc/dcmitype/StillImage" /><dc:title></dc:title></cc:Work></rdf:RDF></metadata><defs
     id="defs5610" /><sodipodi:namedview
     pagecolor="#ffffff"
     bordercolor="#666666"
     borderopacity="1"
     objecttolerance="10"
     gridtolerance="10"
     guidetolerance="10"
     inkscape:pageopacity="0"
     inkscape:pageshadow="2"
     inkscape:window-width="1325"
     inkscape:window-height="744"
     id="namedview5608"
     showgrid="false"
     inkscape:zoom="7.4330709"
     inkscape:cx="27.634759"
     inkscape:cy="24.80909"
     inkscape:window-x="41"
     inkscape:window-y="24"
     inkscape:window-maximized="1"
     inkscape:current-layer="Layer_1"
     fit-margin-top="0"
     fit-margin-left="0"
     fit-margin-right="0"
     fit-margin-bottom="0"
     inkscape:object-paths="true"
     inkscape:snap-intersection-paths="true"
     inkscape:snap-smooth-nodes="true" /><g
     id="g5479"
     transform="matrix(0.08288978,0,0,-0.08288978,0.92868809,63.972499)"
     style="fill:#000000"><g
       id="g5477"
       style="fill:#000000"><path
         d="m 80.1,333.3 h -9.5 c -7.8,0 -14.1,6.3 -14.1,14.1 0,7.8 6.3,14.1 14.1,14.1 h 9.5 c 7.8,0 14.1,-6.3 14.1,-14.1 0,-7.8 -6.3,-14.1 -14.1,-14.1 z"
         id="path5475"
         inkscape:connector-curvature="0"
         style="fill:#000000" /></g></g><g
     id="g5577"
     transform="matrix(0.13298219,0,0,0.13298219,-2.845775,9.4844322)" /><g
     id="g5579"
     transform="matrix(0.13298219,0,0,0.13298219,-2.845775,9.4844322)" /><g
     id="g5581"
     transform="matrix(0.13298219,0,0,0.13298219,-2.845775,9.4844322)" /><g
     id="g5583"
     transform="matrix(0.13298219,0,0,0.13298219,-2.845775,9.4844322)" /><g
     id="g5585"
     transform="matrix(0.13298219,0,0,0.13298219,-2.845775,9.4844322)" /><g
     id="g5587"
     transform="matrix(0.13298219,0,0,0.13298219,-2.845775,9.4844322)" /><g
     id="g5589"
     transform="matrix(0.13298219,0,0,0.13298219,-2.845775,9.4844322)" /><g
     id="g5591"
     transform="matrix(0.13298219,0,0,0.13298219,-2.845775,9.4844322)" /><g
     id="g5593"
     transform="matrix(0.13298219,0,0,0.13298219,-2.845775,9.4844322)" /><g
     id="g5595"
     transform="matrix(0.13298219,0,0,0.13298219,-2.845775,9.4844322)" /><g
     id="g5597"
     transform="matrix(0.13298219,0,0,0.13298219,-2.845775,9.4844322)" /><g
     id="g5599"
     transform="matrix(0.13298219,0,0,0.13298219,-2.845775,9.4844322)" /><g
     id="g5601"
     transform="matrix(0.13298219,0,0,0.13298219,-2.845775,9.4844322)" /><g
     id="g5603"
     transform="matrix(0.13298219,0,0,0.13298219,-2.845775,9.4844322)" /><g
     id="g5605"
     transform="matrix(0.13298219,0,0,0.13298219,-2.845775,9.4844322)" /><path
     style="opacity:1;fill:none;fill-opacity:1;fill-rule:evenodd;stroke:#000000;stroke-width:2;stroke-linecap:round;stroke-linejoin:round;stroke-miterlimit:4;stroke-dasharray:none;stroke-dashoffset:0;stroke-opacity:1"
     d="m 57.067341,40.801496 0,19.842745 H 1 V 13.078087 l 22.105861,0"
     id="rect6172"
     inkscape:connector-curvature="0"
     sodipodi:nodetypes="ccccc" /><circle
     style="opacity:1;fill:none;fill-opacity:1;fill-rule:evenodd;stroke:#000000;stroke-width:2;stroke-linecap:round;stroke-linejoin:round;stroke-miterlimit:4;stroke-dasharray:none;stroke-dashoffset:0;stroke-opacity:1"
     id="path6164"
     cx="42.981792"
     cy="23.39315"
     r="22.39315" /><g
     style="fill:#000000;fill-opacity:1;stroke-width:10.64595413;stroke-miterlimit:4;stroke-dasharray:none"
     id="g5563"
     transform="matrix(0.06574884,0,0,0.06574884,18.932097,-0.77893783)"><g
       style="fill:#000000;fill-opacity:1;stroke-width:10.64595413;stroke-miterlimit:4;stroke-dasharray:none"
       id="g5561"><path
         style="fill:#000000;fill-opacity:1;stroke-width:10.64595413;stroke-miterlimit:4;stroke-dasharray:none"
         d="m 365.71528,113.23345 c -7.8,0 -14.1,6.3 -14.1,14.1 V 361.84618 H 209.24013 c -7.8,0 -14.1,7.4532 -14.1,14.1 0,6.6468 6.3,14.1 14.1,14.1 h 156.57515 c 7.8,0 14.1,-6.3 14.1,-14.1 V 127.33345 c 0,-7.8 -6.4,-14.1 -14.2,-14.1 z"
         id="path5559"
         inkscape:connector-curvature="0"
         sodipodi:nodetypes="sscsasssss" /></g></g><path
     style="fill:none;fill-rule:evenodd;stroke:#000000;stroke-width:2.55785322;stroke-linecap:butt;stroke-linejoin:miter;stroke-miterlimit:4;stroke-dasharray:none;stroke-opacity:1"
     d="M 1.202408,24.615412 H 20.443677"
     id="path6204"
     inkscape:connector-curvature="0" /><g
     transform="matrix(0.08288978,0,0,-0.08288978,10.99544,63.972499)"
     id="g6385"
     style="fill:#000000"><g
       id="g6383"
       style="fill:#000000"><path
         inkscape:connector-curvature="0"
         id="path6381"
         d="m 80.1,333.3 h -9.5 c -7.8,0 -14.1,6.3 -14.1,14.1 0,7.8 6.3,14.1 14.1,14.1 h 9.5 c 7.8,0 14.1,-6.3 14.1,-14.1 0,-7.8 -6.3,-14.1 -14.1,-14.1 z"
         style="fill:#000000" /></g></g><g
     style="fill:#000000"
     id="g6391"
     transform="matrix(0.08288978,0,0,-0.08288978,10.99544,70.807783)"><g
       style="fill:#000000"
       id="g6389"><path
         style="fill:#000000"
         d="m 80.1,333.3 h -9.5 c -7.8,0 -14.1,6.3 -14.1,14.1 0,7.8 6.3,14.1 14.1,14.1 h 9.5 c 7.8,0 14.1,-6.3 14.1,-14.1 0,-7.8 -6.3,-14.1 -14.1,-14.1 z"
         id="path6387"
         inkscape:connector-curvature="0" /></g></g><g
     transform="matrix(0.08288978,0,0,-0.08288978,10.99544,77.643068)"
     id="g6397"
     style="fill:#000000"><g
       id="g6395"
       style="fill:#000000"><path
         inkscape:connector-curvature="0"
         id="path6393"
         d="m 80.1,333.3 h -9.5 c -7.8,0 -14.1,6.3 -14.1,14.1 0,7.8 6.3,14.1 14.1,14.1 h 9.5 c 7.8,0 14.1,-6.3 14.1,-14.1 0,-7.8 -6.3,-14.1 -14.1,-14.1 z"
         style="fill:#000000" /></g></g><g
     style="fill:#000000"
     id="g6403"
     transform="matrix(0.08288978,0,0,-0.08288978,10.99544,84.478352)"><g
       style="fill:#000000"
       id="g6401"><path
         style="fill:#000000"
         d="m 80.1,333.3 h -9.5 c -7.8,0 -14.1,6.3 -14.1,14.1 0,7.8 6.3,14.1 14.1,14.1 h 9.5 c 7.8,0 14.1,-6.3 14.1,-14.1 0,-7.8 -6.3,-14.1 -14.1,-14.1 z"
         id="path6399"
         inkscape:connector-curvature="0" /></g></g><g
     transform="matrix(0.08288978,0,0,-0.08288978,0.92868809,70.807783)"
     id="g6409"
     style="fill:#000000"><g
       id="g6407"
       style="fill:#000000"><path
         inkscape:connector-curvature="0"
         id="path6405"
         d="m 80.1,333.3 h -9.5 c -7.8,0 -14.1,6.3 -14.1,14.1 0,7.8 6.3,14.1 14.1,14.1 h 9.5 c 7.8,0 14.1,-6.3 14.1,-14.1 0,-7.8 -6.3,-14.1 -14.1,-14.1 z"
         style="fill:#000000" /></g></g><g
     style="fill:#000000"
     id="g6415"
     transform="matrix(0.08288978,0,0,-0.08288978,0.92868809,77.643068)"><g
       style="fill:#000000"
       id="g6413"><path
         style="fill:#000000"
         d="m 80.1,333.3 h -9.5 c -7.8,0 -14.1,6.3 -14.1,14.1 0,7.8 6.3,14.1 14.1,14.1 h 9.5 c 7.8,0 14.1,-6.3 14.1,-14.1 0,-7.8 -6.3,-14.1 -14.1,-14.1 z"
         id="path6411"
         inkscape:connector-curvature="0" /></g></g><g
     transform="matrix(0.08288978,0,0,-0.08288978,0.92868809,84.478352)"
     id="g6421"
     style="fill:#000000"><g
       id="g6419"
       style="fill:#000000"><path
         inkscape:connector-curvature="0"
         id="path6417"
         d="m 80.1,333.3 h -9.5 c -7.8,0 -14.1,6.3 -14.1,14.1 0,7.8 6.3,14.1 14.1,14.1 h 9.5 c 7.8,0 14.1,-6.3 14.1,-14.1 0,-7.8 -6.3,-14.1 -14.1,-14.1 z"
         style="fill:#000000" /></g></g><g
     style="fill:#000000"
     id="g6427"
     transform="matrix(0.08288978,0,0,-0.08288978,31.115645,77.643068)"><g
       style="fill:#000000"
       id="g6425"><path
         style="fill:#000000"
         d="m 80.1,333.3 h -9.5 c -7.8,0 -14.1,6.3 -14.1,14.1 0,7.8 6.3,14.1 14.1,14.1 h 9.5 c 7.8,0 14.1,-6.3 14.1,-14.1 0,-7.8 -6.3,-14.1 -14.1,-14.1 z"
         id="path6423"
         inkscape:connector-curvature="0" /></g></g><g
     transform="matrix(0.08288978,0,0,-0.08288978,31.115645,84.478352)"
     id="g6433"
     style="fill:#000000"><g
       id="g6431"
       style="fill:#000000"><path
         inkscape:connector-curvature="0"
         id="path6429"
         d="m 80.1,333.3 h -9.5 c -7.8,0 -14.1,6.3 -14.1,14.1 0,7.8 6.3,14.1 14.1,14.1 h 9.5 c 7.8,0 14.1,-6.3 14.1,-14.1 0,-7.8 -6.3,-14.1 -14.1,-14.1 z"
         style="fill:#000000" /></g></g><g
     transform="matrix(0.08288978,0,0,-0.08288978,21.048893,77.643068)"
     id="g6439"
     style="fill:#000000"><g
       id="g6437"
       style="fill:#000000"><path
         inkscape:connector-curvature="0"
         id="path6435"
         d="m 80.1,333.3 h -9.5 c -7.8,0 -14.1,6.3 -14.1,14.1 0,7.8 6.3,14.1 14.1,14.1 h 9.5 c 7.8,0 14.1,-6.3 14.1,-14.1 0,-7.8 -6.3,-14.1 -14.1,-14.1 z"
         style="fill:#000000" /></g></g><g
     style="fill:#000000"
     id="g6445"
     transform="matrix(0.08288978,0,0,-0.08288978,21.048893,84.478352)"><g
       style="fill:#000000"
       id="g6443"><path
         style="fill:#000000"
         d="m 80.1,333.3 h -9.5 c -7.8,0 -14.1,6.3 -14.1,14.1 0,7.8 6.3,14.1 14.1,14.1 h 9.5 c 7.8,0 14.1,-6.3 14.1,-14.1 0,-7.8 -6.3,-14.1 -14.1,-14.1 z"
         id="path6441"
         inkscape:connector-curvature="0" /></g></g><g
     transform="matrix(0.08288978,0,0,-0.08288978,41.169098,77.643068)"
     id="g6451"
     style="fill:#000000"><g
       id="g6449"
       style="fill:#000000"><path
         inkscape:connector-curvature="0"
         id="path6447"
         d="m 80.1,333.3 h -9.5 c -7.8,0 -14.1,6.3 -14.1,14.1 0,7.8 6.3,14.1 14.1,14.1 h 9.5 c 7.8,0 14.1,-6.3 14.1,-14.1 0,-7.8 -6.3,-14.1 -14.1,-14.1 z"
         style="fill:#000000" /></g></g><g
     style="fill:#000000"
     id="g6457"
     transform="matrix(0.08288978,0,0,-0.08288978,41.169098,84.478352)"><g
       style="fill:#000000"
       id="g6455"><path
         style="fill:#000000"
         d="m 80.1,333.3 h -9.5 c -7.8,0 -14.1,6.3 -14.1,14.1 0,7.8 6.3,14.1 14.1,14.1 h 9.5 c 7.8,0 14.1,-6.3 14.1,-14.1 0,-7.8 -6.3,-14.1 -14.1,-14.1 z"
         id="path6453"
         inkscape:connector-curvature="0" /></g></g></svg>