<?xml version="1.0" encoding="iso-8859-1"?>
<!-- Generator: Adobe Illustrator 19.1.0, SVG Export Plug-In . SVG Version: 6.00 Build 0)  -->
<svg version="1.1" id="Capa_1" xmlns="http://www.w3.org/2000/svg" xmlns:xlink="http://www.w3.org/1999/xlink" x="0px" y="0px"
	 viewBox="0 0 356.197 356.197" style="enable-background:new 0 0 356.197 356.197;" xml:space="preserve">
<g>
	<g>
		<path d="M0,53.098v250h356.197v-250H0z M341.197,288.099H15v-220h326.197V288.099z"/>
		<path d="M104.71,256.803c41.195,0,74.71-33.516,74.71-74.711s-33.515-74.71-74.71-74.71S30,140.896,30,182.092
			S63.515,256.803,104.71,256.803z M104.71,122.382c32.924,0,59.71,26.786,59.71,59.71c0,32.925-26.786,59.711-59.71,59.711
			S45,215.018,45,182.092C45,149.169,71.786,122.382,104.71,122.382z"/>
		<polygon points="131.669,174.592 112.21,174.592 112.21,140.182 97.21,140.182 97.21,189.592 131.669,189.592 		"/>
		<path d="M320,90.181H193.333v57.5H320V90.181z M267.777,105.181v27.5h-22.222v-27.5
			C245.555,105.182,267.777,105.182,267.777,105.181z M208.333,105.181h22.223v27.5h-22.223L208.333,105.181L208.333,105.181z
			 M305,132.682h-22.223v-27.5H305V132.682z"/>
		<rect x="195" y="170.598" width="122.5" height="15"/>
		<rect x="195" y="203.932" width="122.5" height="15"/>
		<rect x="195" y="237.266" width="122.5" height="15"/>
	</g>
	<g>
	</g>
	<g>
	</g>
	<g>
	</g>
	<g>
	</g>
	<g>
	</g>
	<g>
	</g>
	<g>
	</g>
	<g>
	</g>
	<g>
	</g>
	<g>
	</g>
	<g>
	</g>
	<g>
	</g>
	<g>
	</g>
	<g>
	</g>
	<g>
	</g>
</g>
<g>
</g>
<g>
</g>
<g>
</g>
<g>
</g>
<g>
</g>
<g>
</g>
<g>
</g>
<g>
</g>
<g>
</g>
<g>
</g>
<g>
</g>
<g>
</g>
<g>
</g>
<g>
</g>
<g>
</g>
</svg>
