<?xml version="1.0" encoding="iso-8859-1"?>
<!-- Generator: Adobe Illustrator 19.0.0, SVG Export Plug-In . SVG Version: 6.00 Build 0)  -->
<svg version="1.1" id="Capa_1" xmlns="http://www.w3.org/2000/svg" xmlns:xlink="http://www.w3.org/1999/xlink" x="0px" y="0px"
	 viewBox="0 0 480 480" style="enable-background:new 0 0 480 480;" xml:space="preserve">
<g>
	<g>
		<path d="M472,33.944h-48v-8c0-13.232-10.768-24-24-24s-24,10.768-24,24v8h-32v-8c0-13.232-10.768-24-24-24s-24,10.768-24,24v8h-32
			v-8c0-13.232-10.768-24-24-24s-24,10.768-24,24v8h-32v-8c0-13.232-10.768-24-24-24s-24,10.768-24,24v8h-32v-8
			c0-13.232-10.768-24-24-24s-24,10.768-24,24v8H8c-4.416,0-8,3.576-8,8v376c0,4.424,3.584,8,8,8h258.944
			c7.296,5.736,15.296,10.6,23.88,14.4l-17.688,29.48l13.72,8.232l19.36-32.264c9.504,2.632,19.456,4.152,29.784,4.152
			c12.8,0,25.056-2.264,36.528-6.24l20.616,34.352l13.72-8.232l-19.48-32.472c6.264-3.248,12.168-7.08,17.68-11.408H472
			c4.416,0,8-3.576,8-8v-376C480,37.52,476.416,33.944,472,33.944z M392,41.944v-16c0-4.416,3.592-8,8-8c4.408,0,8,3.584,8,8v16
			v23.144c0,3.048-1.496,5.8-3.656,7.4c-0.232,0.152-0.44,0.328-0.68,0.456c-0.432,0.248-0.912,0.392-1.384,0.544
			c-0.504,0.152-1.016,0.264-1.552,0.312c-0.64,0.056-1.264,0.008-1.872-0.088c-0.488-0.072-0.984-0.136-1.44-0.288
			c-0.616-0.216-1.176-0.552-1.728-0.92c-0.352-0.232-0.744-0.424-1.056-0.712c-0.568-0.52-0.976-1.152-1.368-1.792
			c-0.176-0.288-0.416-0.512-0.552-0.824c-0.448-1.008-0.712-2.104-0.712-3.232V41.944z M312,41.944v-16c0-4.416,3.592-8,8-8
			c4.408,0,8,3.584,8,8v16v23.144c0,3.048-1.496,5.8-3.656,7.4c-0.232,0.152-0.44,0.328-0.68,0.456
			c-0.432,0.248-0.912,0.392-1.384,0.544c-0.504,0.152-1.016,0.264-1.552,0.312c-0.64,0.056-1.264,0.008-1.872-0.088
			c-0.488-0.072-0.984-0.136-1.44-0.288c-0.616-0.216-1.176-0.552-1.728-0.92c-0.352-0.232-0.744-0.424-1.056-0.712
			c-0.568-0.52-0.976-1.152-1.368-1.792c-0.176-0.288-0.416-0.512-0.552-0.824c-0.448-1.008-0.712-2.104-0.712-3.232V41.944z
			 M232,41.944v-16c0-4.416,3.592-8,8-8s8,3.584,8,8v16v23.144c0,3.048-1.496,5.8-3.656,7.4c-0.232,0.152-0.44,0.328-0.68,0.456
			c-0.432,0.248-0.912,0.392-1.384,0.544c-0.504,0.152-1.016,0.264-1.552,0.312c-0.64,0.056-1.264,0.008-1.872-0.08
			c-0.488-0.072-0.984-0.136-1.448-0.296c-0.616-0.216-1.168-0.552-1.72-0.912c-0.36-0.232-0.744-0.424-1.064-0.712
			c-0.568-0.52-0.976-1.152-1.368-1.792c-0.176-0.288-0.416-0.512-0.552-0.824c-0.44-1.016-0.704-2.112-0.704-3.24V41.944z
			 M152,41.944v-16c0-4.416,3.592-8,8-8s8,3.584,8,8v16v23.144c0,3.048-1.496,5.8-3.656,7.4c-0.232,0.152-0.44,0.328-0.68,0.456
			c-0.432,0.248-0.912,0.392-1.384,0.544c-0.504,0.152-1.016,0.264-1.552,0.312c-0.64,0.056-1.264,0.008-1.872-0.088
			c-0.488-0.072-0.976-0.136-1.432-0.288c-0.616-0.216-1.184-0.552-1.736-0.92c-0.352-0.232-0.744-0.424-1.056-0.712
			c-0.568-0.52-0.976-1.152-1.368-1.792c-0.176-0.288-0.416-0.512-0.552-0.824c-0.448-1.008-0.712-2.104-0.712-3.232V41.944z
			 M72,41.944v-16c0-4.416,3.592-8,8-8s8,3.584,8,8v16v23.144c0,3.048-1.496,5.8-3.656,7.4c-0.232,0.152-0.44,0.328-0.68,0.456
			c-0.432,0.248-0.912,0.392-1.384,0.544c-0.504,0.152-1.016,0.264-1.552,0.312c-0.64,0.056-1.264,0.008-1.872-0.088
			c-0.488-0.072-0.976-0.136-1.432-0.288c-0.616-0.216-1.184-0.552-1.736-0.92c-0.352-0.232-0.744-0.424-1.056-0.712
			c-0.568-0.52-0.976-1.152-1.368-1.792c-0.176-0.288-0.416-0.512-0.552-0.824C72.264,68.168,72,67.072,72,65.944V41.944z
			 M419.264,385.536c-0.864,1.504-1.76,2.992-2.704,4.448c-0.824,1.272-1.696,2.512-2.576,3.744c-1.04,1.44-2.08,2.88-3.192,4.264
			c-0.96,1.192-1.992,2.336-3.008,3.488c-1.16,1.304-2.296,2.632-3.52,3.872c-1.232,1.248-2.56,2.408-3.864,3.584
			c-17.064,15.488-39.616,25.008-64.4,25.008s-47.336-9.52-64.384-25c-1.304-1.184-2.632-2.344-3.864-3.584
			c-1.224-1.24-2.36-2.568-3.52-3.872c-1.016-1.152-2.048-2.288-3.008-3.488c-1.112-1.384-2.152-2.816-3.192-4.264
			c-0.888-1.232-1.76-2.472-2.576-3.744c-0.944-1.456-1.84-2.944-2.704-4.448c-0.792-1.392-1.552-2.8-2.272-4.224
			c-0.744-1.464-1.472-2.936-2.144-4.44c-0.712-1.608-1.352-3.248-1.976-4.896c-0.536-1.408-1.088-2.808-1.552-4.24
			c-0.616-1.872-1.112-3.792-1.608-5.704c-0.336-1.296-0.72-2.568-1-3.88c-0.48-2.24-0.816-4.52-1.136-6.8
			c-0.152-1.056-0.368-2.088-0.48-3.16c-0.384-3.392-0.584-6.808-0.584-10.256c0-52.936,43.064-96,96-96c52.936,0,96,43.064,96,96
			c0,3.448-0.2,6.864-0.568,10.248c-0.112,1.072-0.336,2.104-0.48,3.16c-0.32,2.28-0.656,4.56-1.136,6.8
			c-0.28,1.312-0.664,2.592-1,3.88c-0.496,1.912-1,3.832-1.608,5.704c-0.472,1.44-1.024,2.832-1.552,4.24
			c-0.624,1.648-1.264,3.288-1.976,4.896c-0.672,1.504-1.4,2.976-2.144,4.44C420.808,382.736,420.056,384.152,419.264,385.536z
			 M464,409.944h-42.216c2.456-2.92,4.704-5.984,6.832-9.12c0.312-0.456,0.592-0.936,0.896-1.4c1.584-2.4,3.088-4.848,4.472-7.36
			c0.448-0.808,0.856-1.648,1.288-2.472c1.152-2.208,2.248-4.448,3.248-6.728c0.472-1.064,0.904-2.152,1.344-3.232
			c0.848-2.104,1.624-4.232,2.344-6.392c0.416-1.24,0.816-2.48,1.184-3.744c0.616-2.104,1.152-4.224,1.64-6.368
			c0.304-1.312,0.624-2.624,0.88-3.952c0.44-2.296,0.768-4.608,1.064-6.936c0.152-1.192,0.36-2.368,0.472-3.576
			c0.344-3.544,0.552-7.12,0.552-10.72c0-36.144-17.288-68.256-43.944-88.744L416,237.256l26.344,26.344
			c1.56,1.56,3.608,2.344,5.656,2.344c2.048,0,4.096-0.784,5.656-2.344l8-8c0.832-0.832,1.576-1.72,2.344-2.592V409.944z
			 M395.312,193.944l2.344-2.344c14.52-14.528,38.168-14.528,52.688,0c14.52,14.52,14.52,38.168,0,52.688L448,246.632
			L395.312,193.944z M464,121.944H136v16h328v44.936c-0.768-0.872-1.512-1.76-2.344-2.592c-20.768-20.768-54.544-20.768-75.312,0
			l-8,8c-3.128,3.128-3.128,8.184,0,11.312l26.344,26.344l-14.224,14.224c-13.928-7.8-29.696-12.624-46.464-13.816v-16.408h16v-16
			h-48v16h16v16.408c-16.768,1.192-32.536,6.024-46.464,13.816l-14.224-14.224l26.344-26.344c3.128-3.128,3.128-8.184,0-11.312l-8-8
			c-20.768-20.768-54.544-20.768-75.312,0c-20.768,20.768-20.768,54.544,0,75.312l8,8c1.56,1.56,3.608,2.344,5.656,2.344
			c2.048,0,4.096-0.784,5.656-2.344L256,237.256l11.944,11.944C241.288,269.688,224,301.8,224,337.944
			c0,3.6,0.208,7.176,0.544,10.72c0.112,1.208,0.32,2.384,0.472,3.576c0.296,2.328,0.624,4.648,1.064,6.936
			c0.256,1.336,0.576,2.64,0.88,3.952c0.496,2.144,1.024,4.264,1.64,6.368c0.368,1.264,0.768,2.504,1.184,3.744
			c0.72,2.16,1.496,4.288,2.344,6.392c0.44,1.088,0.872,2.168,1.344,3.232c1,2.28,2.096,4.52,3.248,6.728
			c0.432,0.824,0.84,1.656,1.288,2.472c1.392,2.512,2.896,4.952,4.472,7.36c0.304,0.464,0.584,0.944,0.896,1.4
			c2.136,3.136,4.376,6.2,6.832,9.12H16v-360h40v16c0,1.72,0.2,3.4,0.544,5.016c0.112,0.52,0.32,1,0.464,1.504
			c0.304,1.08,0.616,2.152,1.072,3.168c0.272,0.616,0.632,1.176,0.96,1.76c0.464,0.848,0.92,1.68,1.48,2.464
			c0.416,0.584,0.896,1.112,1.368,1.656c0.608,0.712,1.232,1.392,1.92,2.024c0.232,0.216,0.408,0.48,0.656,0.688
			c0.32,0.272,0.688,0.44,1.024,0.688c0.744,0.576,1.52,1.096,2.328,1.584c0.608,0.36,1.224,0.704,1.856,1.008
			c0.88,0.424,1.784,0.76,2.72,1.08c0.632,0.208,1.248,0.432,1.896,0.592c0.976,0.24,1.984,0.376,3.008,0.488
			c0.664,0.08,1.32,0.184,2,0.2c0.232,0.016,0.456,0.08,0.704,0.08c0.784,0,1.52-0.16,2.288-0.232c0.56-0.048,1.12,0,1.688-0.088
			c0.176-0.024,0.328-0.096,0.496-0.128c0.544-0.104,1.056-0.28,1.584-0.416c0.896-0.24,1.784-0.48,2.64-0.824
			c0.8-0.312,1.544-0.704,2.296-1.096c0.424-0.224,0.856-0.432,1.264-0.688c7-4.2,11.744-11.784,11.744-20.528v-0.856V49.944h32v16
			c0,1.72,0.2,3.4,0.544,5.016c0.112,0.52,0.32,1,0.464,1.504c0.304,1.08,0.616,2.152,1.072,3.168
			c0.272,0.616,0.632,1.176,0.96,1.76c0.464,0.848,0.92,1.68,1.48,2.464c0.416,0.584,0.896,1.112,1.368,1.656
			c0.608,0.712,1.232,1.392,1.92,2.024c0.232,0.216,0.408,0.48,0.656,0.688c0.32,0.272,0.696,0.44,1.024,0.688
			c0.744,0.568,1.52,1.096,2.328,1.576c0.616,0.368,1.224,0.712,1.864,1.016c0.872,0.416,1.776,0.76,2.704,1.072
			c0.632,0.216,1.256,0.432,1.904,0.592c0.976,0.24,1.976,0.368,2.992,0.488c0.672,0.08,1.328,0.184,2.008,0.2
			c0.24,0.024,0.464,0.088,0.712,0.088c0.784,0,1.52-0.16,2.288-0.232c0.56-0.048,1.12,0,1.688-0.088
			c0.176-0.024,0.328-0.096,0.496-0.128c0.544-0.104,1.056-0.28,1.584-0.416c0.896-0.24,1.784-0.48,2.64-0.824
			c0.8-0.312,1.544-0.704,2.296-1.096c0.424-0.224,0.856-0.432,1.264-0.688c7-4.2,11.744-11.784,11.744-20.528v-0.856V49.944h32v16
			c0,1.72,0.2,3.4,0.544,5.016c0.112,0.52,0.32,1,0.464,1.504c0.304,1.08,0.616,2.152,1.072,3.168
			c0.272,0.616,0.632,1.176,0.96,1.76c0.464,0.848,0.92,1.68,1.48,2.464c0.416,0.584,0.896,1.112,1.368,1.656
			c0.608,0.712,1.232,1.392,1.92,2.024c0.232,0.216,0.408,0.48,0.656,0.688c0.32,0.272,0.696,0.44,1.024,0.696
			c0.744,0.568,1.512,1.096,2.328,1.576c0.616,0.368,1.232,0.712,1.872,1.016c0.872,0.416,1.768,0.752,2.696,1.064
			c0.64,0.216,1.264,0.44,1.912,0.6c0.976,0.24,1.976,0.368,2.992,0.488c0.672,0.08,1.328,0.184,2.008,0.2
			c0.232,0.016,0.456,0.08,0.704,0.08c0.784,0,1.52-0.16,2.288-0.232c0.56-0.048,1.12,0,1.688-0.088
			c0.176-0.024,0.328-0.096,0.496-0.128c0.544-0.104,1.056-0.28,1.584-0.416c0.896-0.24,1.784-0.48,2.64-0.824
			c0.8-0.312,1.544-0.704,2.296-1.096c0.424-0.224,0.856-0.432,1.264-0.688c7-4.2,11.744-11.784,11.744-20.528v-0.856V49.944h32v16
			c0,1.72,0.2,3.4,0.544,5.016c0.112,0.52,0.32,1,0.464,1.504c0.304,1.08,0.616,2.152,1.072,3.168
			c0.272,0.616,0.632,1.176,0.96,1.76c0.464,0.848,0.92,1.68,1.48,2.464c0.416,0.584,0.896,1.112,1.368,1.656
			c0.608,0.712,1.232,1.392,1.92,2.024c0.232,0.216,0.408,0.48,0.656,0.688c0.32,0.272,0.696,0.44,1.024,0.696
			c0.744,0.568,1.512,1.088,2.32,1.568c0.616,0.368,1.232,0.712,1.88,1.024c0.864,0.416,1.76,0.752,2.68,1.064
			c0.64,0.216,1.272,0.44,1.928,0.6c0.968,0.24,1.968,0.368,2.976,0.488c0.672,0.08,1.336,0.184,2.016,0.2
			c0.24,0.016,0.464,0.08,0.712,0.08c0.784,0,1.528-0.16,2.288-0.232c0.56-0.048,1.12,0,1.68-0.088
			c0.176-0.024,0.328-0.096,0.496-0.128c0.544-0.104,1.056-0.28,1.584-0.416c0.896-0.24,1.784-0.48,2.64-0.824
			c0.8-0.312,1.544-0.704,2.296-1.096c0.424-0.224,0.856-0.432,1.264-0.688C339.256,82.272,344,74.688,344,65.944v-0.856V49.944h32
			v16c0,1.72,0.2,3.4,0.544,5.016c0.112,0.52,0.32,1,0.464,1.504c0.304,1.08,0.616,2.152,1.072,3.168
			c0.272,0.616,0.632,1.176,0.96,1.76c0.464,0.848,0.92,1.68,1.48,2.464c0.416,0.584,0.896,1.112,1.368,1.656
			c0.608,0.712,1.232,1.392,1.92,2.024c0.232,0.216,0.408,0.48,0.656,0.688c0.32,0.272,0.696,0.44,1.024,0.696
			c0.744,0.568,1.512,1.088,2.32,1.576c0.616,0.368,1.232,0.712,1.88,1.016c0.872,0.416,1.768,0.752,2.696,1.072
			c0.632,0.216,1.256,0.432,1.912,0.592c0.976,0.24,1.976,0.368,2.992,0.488c0.672,0.08,1.328,0.184,2,0.2
			c0.24,0.016,0.464,0.08,0.712,0.08c0.784,0,1.52-0.16,2.288-0.232c0.56-0.048,1.12,0,1.688-0.088
			c0.176-0.024,0.328-0.096,0.496-0.128c0.544-0.104,1.056-0.28,1.584-0.416c0.896-0.24,1.784-0.48,2.64-0.824
			c0.8-0.312,1.544-0.704,2.296-1.096c0.424-0.224,0.856-0.432,1.264-0.688c7-4.2,11.744-11.784,11.744-20.528v-0.856V49.944h40
			V121.944z M224,246.632l-2.344-2.344c-14.52-14.52-14.52-38.168,0-52.688c7.264-7.264,16.808-10.888,26.344-10.888
			s19.08,3.624,26.344,10.888l2.344,2.344L224,246.632z"/>
	</g>
</g>
<g>
	<g>
		<path d="M328,273.944v60.688l-53.656,53.656l11.312,11.312l56-56c1.504-1.496,2.344-3.528,2.344-5.656v-64H328z"/>
	</g>
</g>
<g>
	<g>
		<path d="M112,121.944H48c-4.416,0-8,3.576-8,8v64c0,4.424,3.584,8,8,8h64c4.416,0,8-3.576,8-8v-64
			C120,125.52,116.416,121.944,112,121.944z M104,185.944H56v-48h48V185.944z"/>
	</g>
</g>
<g>
	<g>
		<path d="M104,265.944v16H56v-48h32v-16H48c-4.416,0-8,3.576-8,8v64c0,4.424,3.584,8,8,8h64c4.416,0,8-3.576,8-8v-24H104z"/>
	</g>
</g>
<g>
	<g>
		<path d="M112,313.944H48c-4.416,0-8,3.576-8,8v64c0,4.424,3.584,8,8,8h64c4.416,0,8-3.576,8-8v-64
			C120,317.52,116.416,313.944,112,313.944z M104,377.944H56v-48h48V377.944z"/>
	</g>
</g>
<g>
	<g>
		<path d="M122.344,212.288L80,254.632l-10.344-10.344L58.344,255.6l16,16c1.56,1.56,3.608,2.344,5.656,2.344
			s4.096-0.784,5.656-2.344l48-48L122.344,212.288z"/>
	</g>
</g>
<g>
</g>
<g>
</g>
<g>
</g>
<g>
</g>
<g>
</g>
<g>
</g>
<g>
</g>
<g>
</g>
<g>
</g>
<g>
</g>
<g>
</g>
<g>
</g>
<g>
</g>
<g>
</g>
<g>
</g>
</svg>
