<?xml version="1.0" encoding="UTF-8" standalone="no"?>
<!-- Created with Inkscape (http://www.inkscape.org/) -->

<svg
   xmlns:dc="http://purl.org/dc/elements/1.1/"
   xmlns:cc="http://creativecommons.org/ns#"
   xmlns:rdf="http://www.w3.org/1999/02/22-rdf-syntax-ns#"
   xmlns:svg="http://www.w3.org/2000/svg"
   xmlns="http://www.w3.org/2000/svg"
   xmlns:sodipodi="http://sodipodi.sourceforge.net/DTD/sodipodi-0.dtd"
   xmlns:inkscape="http://www.inkscape.org/namespaces/inkscape"
   width="366"
   height="134"
   viewBox="0 0 96.837501 35.454168"
   version="1.1"
   id="svg1869"
   inkscape:version="0.92.2 (unknown)"
   sodipodi:docname="lofo-white.svg">
  <defs
     id="defs1863" />
  <sodipodi:namedview
     id="base"
     pagecolor="#ffffff"
     bordercolor="#666666"
     borderopacity="1.0"
     inkscape:pageopacity="0.0"
     inkscape:pageshadow="2"
     inkscape:zoom="0.35"
     inkscape:cx="562.78502"
     inkscape:cy="-36.671615"
     inkscape:document-units="mm"
     inkscape:current-layer="layer1"
     showgrid="false"
     fit-margin-top="0"
     fit-margin-left="0"
     fit-margin-right="0"
     fit-margin-bottom="0"
     units="px"
     inkscape:window-width="1325"
     inkscape:window-height="744"
     inkscape:window-x="41"
     inkscape:window-y="24"
     inkscape:window-maximized="1" />
  <metadata
     id="metadata1866">
    <rdf:RDF>
      <cc:Work
         rdf:about="">
        <dc:format>image/svg+xml</dc:format>
        <dc:type
           rdf:resource="http://purl.org/dc/dcmitype/StillImage" />
        <dc:title></dc:title>
      </cc:Work>
    </rdf:RDF>
  </metadata>
  <g
     inkscape:label="Layer 1"
     inkscape:groupmode="layer"
     id="layer1"
     transform="translate(170.82615,-103.67647)">
    <g
       id="g1844"
       transform="translate(-217.30299,42.446929)"
       style="fill:#ffffff;fill-opacity:1;stroke:none">
      <path
         transform="matrix(0.26458333,0,0,0.26458333,33.398548,61.163327)"
         inkscape:connector-curvature="0"
         id="path1820"
         d="m 57.135234,132.08014 c -4.396852,-1.99928 -7.490469,-6.31727 -7.490469,-10.455 0,-4.37617 4.108349,-8.74597 9.676052,-10.29181 5.604775,-1.55613 19.873917,-1.34275 28.20429,0.42175 3.888881,0.82373 7.664633,1.49769 8.390561,1.49769 2.672033,0 5.656082,-10.1913 11.823822,-40.381346 3.47338,-17.001646 7.28307,-34.439869 8.46598,-38.751608 7.54949,-27.5181396 28.08945,-42.0427943 38.2123,-27.0214987 1.87405,2.7809007 2.30316,4.7890787 2.30316,10.7783837 0,7.622291 -2.03281,19.350269 -4.16516,24.030275 -0.74716,1.63984 -2.43578,3.013457 -4.33752,3.528377 -1.71274,0.463744 -3.18045,0.797969 -3.26158,0.742723 -0.0811,-0.05525 1.47513,-4.873419 3.45835,-10.70705 2.91539,-8.575555 3.62065,-12.185757 3.68305,-18.853318 0.0692,-7.3932007 -0.17628,-8.5170963 -2.37174,-10.8591403 -4.96039,-5.29154749 -13.8036,-2.4820484 -19.25771,6.1181953 -4.20691,6.633608 -5.2952,10.523578 -11.68786,41.777008 -7.73483,37.815241 -10.02197,46.944899 -13.56981,54.167119 -1.67104,3.40169 -3.03825,6.65971 -3.03825,7.24006 0,2.7235 23.60175,9.37873 35.60787,10.04071 5.41695,0.29868 9.84899,0.65404 9.84899,0.78971 0,0.13566 -0.68795,1.89316 -1.52878,3.90556 -1.2335,2.95217 -2.06273,3.65497 -4.29315,3.63858 -6.87678,-0.0505 -17.03144,-2.25037 -30.73148,-6.65747 l -14.83514,-4.77225 -3.614832,2.75716 c -7.152118,5.45519 -14.50391,8.05337 -23.788515,8.40704 -5.838448,0.22241 -9.583543,-0.12638 -11.702429,-1.08985 z m 19.136936,-1.05653 c 6.383991,-1.92129 14.966005,-7.51863 14.58234,-9.51085 -0.491974,-2.55461 -14.962122,-6.07304 -25.345759,-6.16284 -8.139254,-0.0704 -9.092796,0.1312 -11.364216,2.40263 -8.738126,8.73812 6.607794,17.94185 22.127635,13.27106 z"
         style="opacity:0.79000005;fill:#ffffff;fill-opacity:1;fill-rule:evenodd;stroke:none;stroke-width:1.01015258;stroke-linecap:round;stroke-linejoin:round;stroke-miterlimit:4;stroke-dasharray:none;stroke-dashoffset:0;stroke-opacity:1" />
      <path
         transform="matrix(0.26458333,0,0,0.26458333,33.398548,61.163327)"
         inkscape:connector-curvature="0"
         id="path1822"
         d="m 165.13845,131.33723 c -7.37693,-2.13573 -11.57432,-12.5388 -9.52322,-23.60294 4.13361,-22.297652 26.20613,-40.810398 32.99806,-27.676254 3.52871,6.823778 -4.81238,18.647263 -18.95023,26.861914 -8.87247,5.15525 -9.41125,6.42374 -5.95819,14.02766 2.41475,5.31746 5.52135,7.45745 10.8259,7.45745 3.51875,0 5.17621,-0.77214 9.87676,-4.60119 6.78636,-5.52812 7.52251,-4.45465 1.04175,1.51911 -7.21879,6.65406 -12.59858,8.24707 -20.31083,6.01425 z m 10.0503,-31.11222 c 13.57878,-13.037093 12.44789,-31.211254 -1.22615,-19.705304 -5.02812,4.230881 -13.57367,24.627704 -11.63343,27.767074 0.86063,1.39253 7.06109,-2.49459 12.85958,-8.06177 z"
         style="opacity:0.79000005;fill:#ffffff;fill-opacity:1;fill-rule:evenodd;stroke:none;stroke-width:1.01015258;stroke-linecap:round;stroke-linejoin:round;stroke-miterlimit:4;stroke-dasharray:none;stroke-dashoffset:0;stroke-opacity:1" />
      <path
         transform="matrix(0.26458333,0,0,0.26458333,33.398548,61.163327)"
         inkscape:connector-curvature="0"
         id="path1824"
         d="m 208.3517,130.17283 c -0.97892,-2.62631 -6.19577,-43.093434 -6.18268,-47.958962 0.006,-2.367251 0.70882,-3.718393 2.56569,-4.935058 1.40629,-0.921443 2.71966,-1.500132 2.91859,-1.285978 0.19893,0.214154 1.07721,10.162598 1.95175,22.107652 1.56332,21.353136 2.78806,28.284266 4.99785,28.284266 0.61368,0 2.61477,-1.45287 4.44686,-3.22861 5.26311,-5.1012 3.87535,-1.69501 -1.66271,4.08109 -5.45157,5.68588 -7.73384,6.42739 -9.03535,2.9356 z"
         style="opacity:0.79000005;fill:#ffffff;fill-opacity:1;fill-rule:evenodd;stroke:none;stroke-width:1.01015258;stroke-linecap:round;stroke-linejoin:round;stroke-miterlimit:4;stroke-dasharray:none;stroke-dashoffset:0;stroke-opacity:1" />
      <path
         transform="matrix(0.26458333,0,0,0.26458333,33.398548,61.163327)"
         inkscape:connector-curvature="0"
         id="path1826"
         d="m 222.38085,119.93672 c 0,-0.27849 1.8318,-3.42789 4.07066,-6.99866 7.56218,-12.06092 9.8291,-22.769106 6.50464,-30.725664 -1.49069,-3.567729 -1.45801,-3.789886 0.90511,-6.153008 3.70047,-3.700468 4.68203,-2.124197 4.68203,7.518775 0,6.59224 -0.51731,9.811066 -2.22267,13.829981 -3.86377,9.105476 -13.93977,25.389676 -13.93977,22.528576 z"
         style="opacity:0.79000005;fill:#ffffff;fill-opacity:1;fill-rule:evenodd;stroke:none;stroke-width:1.01015258;stroke-linecap:round;stroke-linejoin:round;stroke-miterlimit:4;stroke-dasharray:none;stroke-dashoffset:0;stroke-opacity:1" />
      <path
         transform="matrix(0.26458333,0,0,0.26458333,33.398548,61.163327)"
         inkscape:connector-curvature="0"
         id="path1828"
         d="m 250.73844,129.78406 c -2.79463,-3.5528 -2.71524,-8.9687 0.42742,-29.1582 3.44712,-22.145346 3.26786,-21.525728 6.74832,-23.325547 1.67212,-0.864685 3.20459,-1.407781 3.40549,-1.206879 0.2009,0.200903 -1.42893,8.07573 -3.62184,17.499617 -5.22756,22.465019 -5.76296,26.950059 -3.60948,30.236689 2.11605,3.22951 3.71643,3.21686 7.61095,-0.0602 1.70938,-1.43835 3.10796,-2.18241 3.10796,-1.65346 0,1.22663 -9.68943,10.32955 -10.99509,10.32955 -0.53906,0 -1.92224,-1.19772 -3.07373,-2.66161 z"
         style="opacity:0.79000005;fill:#ffffff;fill-opacity:1;fill-rule:evenodd;stroke:none;stroke-width:1.01015258;stroke-linecap:round;stroke-linejoin:round;stroke-miterlimit:4;stroke-dasharray:none;stroke-dashoffset:0;stroke-opacity:1" />
      <path
         transform="matrix(0.26458333,0,0,0.26458333,33.398548,61.163327)"
         inkscape:connector-curvature="0"
         id="path1830"
         d="m 280.42139,130.56372 c -12.59668,-7.68169 -10.4465,-31.526032 4.16003,-46.132569 9.68571,-9.685704 20.64628,-10.881024 27.56091,-3.005694 10.2224,11.642673 0.9739,41.017633 -15.41145,48.949653 -5.34559,2.58775 -12.24448,2.66754 -16.30949,0.18861 z m 15.45859,-1.73306 c 8.12905,-5.32636 16.30747,-30.947742 13.36578,-41.872356 -3.10887,-11.545436 -13.86647,-12.246982 -21.06846,-1.373957 -10.83448,16.357083 -12.0254,41.299273 -2.15684,45.172013 2.17611,0.85398 7.07853,-0.10353 9.85952,-1.9257 z"
         style="opacity:0.79000005;fill:#ffffff;fill-opacity:1;fill-rule:evenodd;stroke:none;stroke-width:1.01015258;stroke-linecap:round;stroke-linejoin:round;stroke-miterlimit:4;stroke-dasharray:none;stroke-dashoffset:0;stroke-opacity:1" />
      <path
         transform="matrix(0.26458333,0,0,0.26458333,33.398548,61.163327)"
         inkscape:connector-curvature="0"
         id="path1832"
         d="m 325.63503,130.41581 c -4.06075,-2.47582 -4.88318,-4.38353 -3.3451,-7.75925 l 1.17973,-2.58921 3.75129,4.03501 c 2.06322,2.21925 4.8136,4.36569 6.11196,4.76987 8.04366,2.50398 17.08731,-5.78093 14.30334,-13.10333 -0.44578,-1.1725 -4.20625,-5.83044 -8.3566,-10.35099 -4.15034,-4.52055 -7.77878,-9.436478 -8.06319,-10.924284 -1.59578,-8.347752 7.10331,-18.616499 15.77082,-18.616499 6.49797,0 11.19079,5.510417 8.68316,10.195964 -1.22222,2.283754 -1.24128,2.275793 -3.06585,-1.280651 -3.27823,-6.389938 -10.53207,-7.480512 -15.65842,-2.354157 -4.4586,4.458601 -3.43645,7.599751 5.59204,17.184754 10.44273,11.086423 11.30544,15.359433 5.13995,25.458283 -4.10636,6.72605 -15.31269,9.43801 -22.04313,5.33449 z"
         style="opacity:0.79000005;fill:#ffffff;fill-opacity:1;fill-rule:evenodd;stroke:none;stroke-width:1.01015258;stroke-linecap:round;stroke-linejoin:round;stroke-miterlimit:4;stroke-dasharray:none;stroke-dashoffset:0;stroke-opacity:1" />
      <path
         transform="matrix(0.26458333,0,0,0.26458333,33.398548,61.163327)"
         inkscape:connector-curvature="0"
         id="path1834"
         d="m 368.14925,128.91353 -3.53214,-3.53215 0.35016,-9.40483 c 0.31799,-8.54058 0.71319,-10.13889 4.30059,-17.392824 4.39578,-8.888536 11.21986,-16.850943 16.94513,-19.77176 5.16505,-2.63501 11.91485,-2.520338 15.45269,0.262524 2.53244,1.99202 2.8646,2.037092 3.72197,0.505054 1.03781,-1.854464 6.90188,-5.233313 6.90188,-3.97683 0,0.433192 -1.81232,8.968027 -4.02737,18.966302 -4.09378,18.478454 -4.88687,26.351434 -3.00816,29.861844 1.40962,2.6339 3.24976,2.45902 6.95803,-0.66128 4.34446,-3.65563 3.87924,-1.58689 -0.77748,3.45725 -4.84084,5.24357 -8.44618,5.65609 -10.73583,1.22839 -1.67061,-3.23059 -1.94473,-11.14632 -0.62267,-17.98037 0.45679,-2.36123 0.55064,-4.29268 0.20855,-4.29212 -0.34209,5.7e-4 -1.91609,2.30512 -3.49778,5.12124 -4.20802,7.49214 -4.35651,5.40792 -0.20418,-2.86588 4.17949,-8.3279 7.21581,-19.930141 6.23669,-23.831275 -0.7387,-2.943231 -5.90824,-6.70183 -9.21762,-6.70183 -5.97101,0 -13.82081,8.995232 -18.65613,21.378404 -5.14472,13.175551 -5.34852,24.546551 -0.49692,27.725441 3.29003,2.15571 6.61666,1.21165 11.60237,-3.29264 5.37584,-4.85674 5.14914,-2.90004 -0.278,2.39956 -7.44744,7.27241 -12.368,8.05355 -17.62378,2.79778 z"
         style="opacity:0.79000005;fill:#ffffff;fill-opacity:1;fill-rule:evenodd;stroke:none;stroke-width:1.01015258;stroke-linecap:round;stroke-linejoin:round;stroke-miterlimit:4;stroke-dasharray:none;stroke-dashoffset:0;stroke-opacity:1" />
    </g>
  </g>
</svg>
