<?xml version="1.0" encoding="UTF-8" standalone="no"?>
<!-- Created with Inkscape (http://www.inkscape.org/) -->

<svg
   xmlns:dc="http://purl.org/dc/elements/1.1/"
   xmlns:cc="http://creativecommons.org/ns#"
   xmlns:rdf="http://www.w3.org/1999/02/22-rdf-syntax-ns#"
   xmlns:svg="http://www.w3.org/2000/svg"
   xmlns="http://www.w3.org/2000/svg"
   xmlns:sodipodi="http://sodipodi.sourceforge.net/DTD/sodipodi-0.dtd"
   xmlns:inkscape="http://www.inkscape.org/namespaces/inkscape"
   width="366"
   height="134"
   viewBox="0 0 96.837501 35.454168"
   version="1.1"
   id="svg1869"
   inkscape:version="0.92.2 (unknown)"
   sodipodi:docname="logo-blue.svg">
  <defs
     id="defs1863" />
  <sodipodi:namedview
     id="base"
     pagecolor="#ffffff"
     bordercolor="#666666"
     borderopacity="1.0"
     inkscape:pageopacity="0.0"
     inkscape:pageshadow="2"
     inkscape:zoom="0.98994949"
     inkscape:cx="353.12602"
     inkscape:cy="-1.6680641"
     inkscape:document-units="mm"
     inkscape:current-layer="layer1"
     showgrid="false"
     fit-margin-top="0"
     fit-margin-left="0"
     fit-margin-right="0"
     fit-margin-bottom="0"
     units="px"
     inkscape:window-width="1325"
     inkscape:window-height="744"
     inkscape:window-x="41"
     inkscape:window-y="24"
     inkscape:window-maximized="1" />
  <metadata
     id="metadata1866">
    <rdf:RDF>
      <cc:Work
         rdf:about="">
        <dc:format>image/svg+xml</dc:format>
        <dc:type
           rdf:resource="http://purl.org/dc/dcmitype/StillImage" />
        <dc:title></dc:title>
      </cc:Work>
    </rdf:RDF>
  </metadata>
  <g
     inkscape:label="Layer 1"
     inkscape:groupmode="layer"
     id="layer1"
     transform="translate(170.82615,-103.67647)">
    <path
       style="opacity:0.79000005;fill:#00008b;fill-opacity:1;fill-rule:evenodd;stroke:#00008b;stroke-width:0.13363476;stroke-linecap:round;stroke-linejoin:round;stroke-miterlimit:4;stroke-dasharray:none;stroke-dashoffset:0;stroke-opacity:1"
       d="m -167.83553,138.94951 c -1.72763,-0.39672 -2.80013,-1.29237 -3.08803,-2.57883 -0.13581,-0.60688 -0.12651,-0.79867 0.0628,-1.29433 0.6178,-1.61767 2.43183,-2.36205 5.76476,-2.36553 1.7712,-0.002 3.04559,0.15701 5.24375,0.65365 0.67909,0.15343 1.28251,0.27897 1.34094,0.27897 0.18976,0 0.52898,-0.70645 1.0267,-2.13816 0.34083,-0.98041 0.92987,-3.59747 1.95507,-8.68626 1.92418,-9.55108 2.45462,-11.61066 3.56218,-13.8312 0.89423,-1.79281 2.47781,-3.61697 3.8257,-4.40688 0.30712,-0.17999 0.94546,-0.42641 1.41853,-0.5476 1.71577,-0.43956 2.98355,0.18132 3.81806,1.86984 l 0.49674,1.00508 -0.0752,1.97523 c -0.0539,1.41584 -0.16872,2.3726 -0.40543,3.37839 -0.41987,1.78401 -0.83307,2.96218 -1.11114,3.16825 -0.25217,0.18687 -1.62047,0.516 -1.72221,0.41426 -0.0377,-0.0377 0.19612,-0.75393 0.51956,-1.59166 0.95711,-2.47889 1.55513,-5.0148 1.55513,-6.5945 0,-0.98553 -0.34466,-2.02064 -0.86008,-2.58306 -0.40425,-0.44112 -0.51596,-0.48715 -1.30382,-0.53732 -1.63738,-0.10426 -2.95099,0.83917 -4.03151,2.89541 -0.92075,1.75219 -1.24455,3.0464 -3.23083,12.91352 -1.81016,8.99221 -2.31544,10.78106 -3.69123,13.06817 -0.42288,0.70301 -0.27081,0.87601 1.23573,1.40574 4.28862,1.50797 6.30373,1.94562 8.8539,1.92294 1.69619,-0.0151 1.84226,0.003 1.75872,0.21234 -0.0501,0.12583 -0.24304,0.6347 -0.42873,1.13083 -0.38689,1.0336 -0.15623,0.96362 -2.51165,0.76202 -2.07485,-0.17758 -3.55423,-0.53944 -7.51432,-1.838 l -3.23802,-1.06177 -0.90466,0.72502 c -1.13111,0.90651 -2.72103,1.70022 -4.1119,2.05274 -1.36034,0.34477 -3.24394,0.44442 -4.20949,0.2227 z m 4.27631,-0.74315 c 1.06045,-0.34126 2.37171,-1.09929 3.1945,-1.84671 0.54618,-0.49615 0.59192,-0.58008 0.41364,-0.75896 -0.24672,-0.24753 -3.14074,-1.09136 -4.66131,-1.35912 -2.23636,-0.39381 -4.35977,-0.1657 -5.10515,0.54842 -0.73949,0.70847 -0.75328,1.74182 -0.0346,2.59587 0.40885,0.48589 0.85942,0.73506 1.81377,1.00301 0.99306,0.27882 3.23614,0.18534 4.37919,-0.18251 z"
       id="path2457"
       inkscape:connector-curvature="0" />
    <path
       style="opacity:0.79000005;fill:#00008b;fill-opacity:1;fill-rule:evenodd;stroke:#00008b;stroke-width:0.13363476;stroke-linecap:round;stroke-linejoin:round;stroke-miterlimit:4;stroke-dasharray:none;stroke-dashoffset:0;stroke-opacity:1"
       d="m -139.50496,138.63587 c -0.90981,-0.17037 -1.6339,-0.50951 -2.14325,-1.00382 -1.51989,-1.475 -1.79971,-4.25571 -0.74109,-7.36456 0.61524,-1.80676 1.51926,-3.26625 2.89137,-4.66793 1.27447,-1.30194 2.24058,-1.85456 3.4122,-1.95179 0.88789,-0.0737 1.42286,0.2059 1.94421,1.0161 0.35353,0.5494 0.39449,0.71046 0.32947,1.29557 -0.11891,1.07007 -0.89344,2.46464 -1.99107,3.58499 -1.1057,1.1286 -1.97659,1.74205 -4.01908,2.83103 l -1.45314,0.77476 0.0704,0.68092 c 0.0936,0.90555 0.53677,2.13586 0.97758,2.7138 0.45122,0.59158 1.5319,1.10493 2.32605,1.10493 0.92081,0 1.81316,-0.49997 3.19517,-1.7902 0.68451,-0.63905 1.27566,-1.13081 1.31368,-1.0928 0.038,0.038 -0.11599,0.35705 -0.34222,0.70897 -0.67724,1.05348 -2.18172,2.36567 -3.25398,2.83808 -0.59556,0.26239 -1.9256,0.43257 -2.51627,0.32195 z m 1.23581,-7.88521 c 1.60644,-1.29406 2.98409,-3.4562 3.13522,-4.92054 0.095,-0.92085 -0.0189,-1.35167 -0.42865,-1.62012 -0.28632,-0.1876 -0.42227,-0.19396 -1.03355,-0.0483 -1.05703,0.25183 -2.12218,1.3892 -3.01149,3.21567 -0.96984,1.99186 -1.7007,4.49845 -1.43635,4.92617 0.12803,0.20715 1.64113,-0.63962 2.77482,-1.55286 z"
       id="path2459"
       inkscape:connector-curvature="0" />
    <path
       style="opacity:0.79000005;fill:#00008b;fill-opacity:1;fill-rule:evenodd;stroke:#00008b;stroke-width:0.13363476;stroke-linecap:round;stroke-linejoin:round;stroke-miterlimit:4;stroke-dasharray:none;stroke-dashoffset:0;stroke-opacity:1"
       d="m -128.63612,138.56338 c -0.3232,-0.15632 -0.39343,-0.46529 -0.84996,-3.73932 -0.81934,-5.87585 -1.2359,-9.94912 -1.05249,-10.29181 0.13654,-0.25515 1.43508,-0.97801 1.55015,-0.86293 0.0365,0.0366 0.14875,1.31847 0.24933,2.84872 0.47277,7.19254 0.59036,8.40248 0.93549,9.62562 0.23046,0.81671 0.50135,1.02856 0.99126,0.77522 1.07309,-0.55492 3.74364,-4.781 4.43433,-7.01721 0.23972,-0.77613 0.30989,-1.31885 0.31098,-2.40543 0.001,-1.29736 -0.0302,-1.46994 -0.4182,-2.28877 l -0.4196,-0.8856 0.73479,-0.61779 c 0.40413,-0.33978 0.81257,-0.61779 0.90765,-0.61779 0.31788,0 0.46629,0.82685 0.46629,2.59775 0,2.06718 -0.16403,2.81804 -1.00219,4.58741 -1.80935,3.81958 -5.40303,8.52894 -6.44131,8.44107 -0.0588,-0.005 -0.23721,-0.0721 -0.39652,-0.14914 z"
       id="path2461"
       inkscape:connector-curvature="0" />
    <path
       style="opacity:0.79000005;fill:#00008b;fill-opacity:1;fill-rule:evenodd;stroke:#00008b;stroke-width:0.13363476;stroke-linecap:round;stroke-linejoin:round;stroke-miterlimit:4;stroke-dasharray:none;stroke-dashoffset:0;stroke-opacity:1"
       d="m -117.60289,138.1884 c -0.5431,-0.57092 -0.78692,-1.21452 -0.78524,-2.07272 0.001,-0.64742 0.48575,-4.12953 1.15032,-8.26775 0.55469,-3.45404 0.57473,-3.49884 1.77159,-3.96005 l 0.71948,-0.27726 -0.0896,0.56048 c -0.0493,0.30826 -0.47314,2.1898 -0.94187,4.18119 -1.07895,4.58386 -1.27609,5.63265 -1.27609,6.78868 0,1.39661 0.47899,2.02042 1.37809,1.79476 0.16995,-0.0427 0.65802,-0.38297 1.08458,-0.75625 1.39898,-1.22421 1.06366,-0.45081 -0.51382,1.18515 -0.89897,0.93228 -1.47143,1.35693 -1.82927,1.35693 -0.0885,0 -0.3892,-0.23992 -0.66815,-0.53316 z"
       id="path2463"
       inkscape:connector-curvature="0" />
    <path
       style="opacity:0.79000005;fill:#00008b;fill-opacity:1;fill-rule:evenodd;stroke:#00008b;stroke-width:0.13363476;stroke-linecap:round;stroke-linejoin:round;stroke-miterlimit:4;stroke-dasharray:none;stroke-dashoffset:0;stroke-opacity:1"
       d="m -108.76897,138.67217 c -0.94926,-0.21127 -1.1678,-0.33923 -1.85782,-1.08781 -1.44123,-1.56355 -1.82385,-3.90465 -1.07804,-6.59602 1.12271,-4.05142 4.35839,-7.23387 7.35487,-7.23387 1.58624,0 3.14886,1.09449 3.73173,2.61377 0.45608,1.18879 0.52002,3.22612 0.1499,4.77641 -1.13858,4.76911 -4.99222,8.26383 -8.30064,7.52752 z m 2.67777,-0.755 c 2.03394,-1.03765 4.14717,-6.45107 3.97259,-10.17652 -0.0985,-2.10109 -0.84196,-3.26853 -2.17745,-3.41906 -1.66962,-0.18819 -2.93985,0.77852 -4.14815,3.15695 -1.03996,2.04707 -1.57728,4.2939 -1.58616,6.63262 -0.009,2.44302 0.44824,3.59433 1.59549,4.01503 0.65204,0.2391 1.63757,0.15121 2.34368,-0.20902 z"
       id="path2465"
       inkscape:connector-curvature="0" />
    <path
       style="opacity:0.79000005;fill:#00008b;fill-opacity:1;fill-rule:evenodd;stroke:#00008b;stroke-width:0.13363476;stroke-linecap:round;stroke-linejoin:round;stroke-miterlimit:4;stroke-dasharray:none;stroke-dashoffset:0;stroke-opacity:1"
       d="m -96.84651,138.72385 c -0.568541,-0.13475 -1.829739,-0.97377 -2.112549,-1.40539 -0.210503,-0.32127 -0.20315,-0.37077 0.163174,-1.09844 0.210986,-0.4191 0.443748,-0.77757 0.517247,-0.7966 0.0735,-0.019 0.374176,0.33941 0.668173,0.79655 0.860306,1.33769 2.192253,1.84649 3.721902,1.42175 1.038757,-0.28844 1.957575,-1.59529 1.957575,-2.7843 0,-0.67733 -0.306956,-1.11359 -2.111012,-3.00024 -0.933667,-0.97642 -1.870528,-2.09348 -2.081911,-2.48238 -0.342607,-0.63031 -0.377399,-0.80332 -0.320445,-1.5935 0.115932,-1.60843 1.134943,-2.98917 2.752635,-3.72978 1.536748,-0.70354 3.251565,-0.33385 3.772366,0.81327 0.139858,0.30806 0.255611,0.70136 0.257225,0.874 0.0035,0.36937 -0.376867,1.22291 -0.544907,1.22291 -0.06407,0 -0.29554,-0.3547 -0.514384,-0.78823 -0.824053,-1.63244 -2.191343,-2.04282 -3.629192,-1.08926 -0.322935,0.21416 -0.699333,0.57986 -0.836435,0.81267 -0.288859,0.49048 -0.331981,1.53842 -0.08249,2.0046 0.09174,0.17141 0.964306,1.13333 1.939044,2.13759 0.974736,1.00427 1.883304,2.03064 2.019036,2.28084 0.18456,0.3402 0.247075,0.7413 0.247938,1.5908 0.0013,1.38255 -0.366607,2.29155 -1.355963,3.34925 -0.763831,0.8166 -1.373082,1.14959 -2.565866,1.40241 -0.977961,0.20728 -1.213191,0.21505 -1.861164,0.0615 z"
       id="path2469"
       inkscape:connector-curvature="0" />
    <path
       style="opacity:0.79000005;fill:#00008b;fill-opacity:1;fill-rule:evenodd;stroke:#00008b;stroke-width:0.13363476;stroke-linecap:round;stroke-linejoin:round;stroke-miterlimit:4;stroke-dasharray:none;stroke-dashoffset:0;stroke-opacity:1"
       d="m -85.558215,138.58513 c -0.678035,-0.12173 -1.649426,-1.06687 -1.845712,-1.79581 -0.08595,-0.31921 -0.122267,-1.36839 -0.09028,-2.60834 0.05274,-2.04447 0.06078,-2.09166 0.558231,-3.27705 1.40326,-3.34387 3.16648,-5.54824 5.250513,-6.56417 0.679804,-0.3314 0.934233,-0.38024 1.992029,-0.38238 1.147604,-0.002 1.239851,0.019 1.718863,0.39844 1.022432,0.80979 0.968616,0.79221 1.166265,0.38101 0.200766,-0.41769 1.067493,-1.04894 1.636213,-1.19168 0.325538,-0.0817 0.366217,-0.0606 0.303524,0.15771 -0.03982,0.13863 -0.141827,0.61287 -0.226687,1.05387 -0.08486,0.44099 -0.446011,2.09472 -0.802555,3.67495 -1.002009,4.44096 -1.233252,5.79434 -1.177769,6.89307 0.04067,0.80542 0.105034,1.03389 0.371012,1.31702 0.49716,0.52919 0.901634,0.44538 1.885037,-0.3906 0.474332,-0.40323 0.910923,-0.73398 0.970203,-0.73499 0.246722,-0.004 -0.445656,0.92953 -1.456647,1.9645 -1.192337,1.22061 -1.497217,1.33503 -2.20826,0.82872 -0.994236,-0.70795 -1.227567,-2.09088 -0.7962,-4.71893 0.245586,-1.49619 0.273981,-2.02026 0.0979,-1.80678 -0.02527,0.0306 -0.37951,0.62697 -0.787225,1.32521 -0.938091,1.60655 -1.717955,2.6644 -2.844993,3.85912 -1.259996,1.33567 -2.43387,1.84686 -3.713464,1.61711 z m 2.419501,-1.33254 c 2.052658,-0.93161 4.454874,-4.83516 5.50387,-8.94366 0.461769,-1.80857 0.338974,-2.51064 -0.580292,-3.31777 -0.942504,-0.82753 -1.911305,-0.87449 -3.051424,-0.14793 -2.29358,1.46164 -4.531773,6.19752 -4.569515,9.66884 -0.01688,1.5514 0.216709,2.19988 0.974084,2.70433 0.553281,0.36852 0.971664,0.37731 1.723277,0.0362 z"
       id="path2471"
       inkscape:connector-curvature="0" />
    <path
       style="opacity:0.79000005;fill:#00008b;fill-opacity:1;fill-rule:evenodd;stroke:#00008b;stroke-width:0.04724703;stroke-linecap:round;stroke-linejoin:round;stroke-miterlimit:4;stroke-dasharray:none;stroke-dashoffset:0;stroke-opacity:1"
       d="m -108.39005,116.54786 c -0.23771,-0.0858 -0.87511,-0.37623 -1.95268,-0.88974 l -0.58252,-0.27759 0.57452,-0.55392 c 0.61055,-0.58863 1.11194,-1.02347 1.18014,-1.02347 0.0678,0 0.36315,0.51992 0.73114,1.28722 0.69949,1.45855 0.70751,1.69502 0.0494,1.4575 z m -0.004,-0.3638 c 0.13139,-0.0504 0.0831,-0.29988 -0.163,-0.84169 -0.26965,-0.59369 -0.51326,-0.95476 -0.68935,-1.0217 -0.18354,-0.0698 -0.40846,0.0631 -0.67285,0.39752 -0.31995,0.40469 -0.35991,0.48975 -0.2908,0.61889 0.0679,0.12697 0.49057,0.37724 1.06391,0.63004 0.60196,0.26542 0.61555,0.26934 0.75209,0.21694 z"
       id="path2475"
       inkscape:connector-curvature="0" />
    <path
       style="opacity:0.79000005;fill:#00008b;fill-opacity:1;fill-rule:evenodd;stroke:#00008b;stroke-width:0.04724703;stroke-linecap:round;stroke-linejoin:round;stroke-miterlimit:4;stroke-dasharray:none;stroke-dashoffset:0;stroke-opacity:1"
       d="m -108.63951,112.3503 c -0.0627,-0.14005 -0.0794,-0.32572 -0.0801,-0.88589 -7.9e-4,-0.75028 0.0536,-1.0366 0.20651,-1.08511 0.24273,-0.077 2.68507,0.75495 2.81011,0.95728 0.0454,0.0735 -0.18416,0.2191 -0.83906,0.53238 -0.65765,0.31458 -1.62633,0.65676 -1.86223,0.65782 -0.1349,6e-4 -0.16667,-0.0232 -0.23524,-0.17648 z m 0.60705,-0.18243 c 0.48254,-0.14314 1.94273,-0.73715 1.90284,-0.77408 -0.0219,-0.0203 -0.44378,-0.1918 -0.93751,-0.38116 -1.0295,-0.39483 -1.31934,-0.44223 -1.42638,-0.2333 -0.0393,0.0768 -0.0608,0.32074 -0.0612,0.6969 -5.3e-4,0.51631 0.01,0.58897 0.0938,0.67327 0.11379,0.11378 0.10769,0.11352 0.42846,0.0184 z"
       id="path2477"
       inkscape:connector-curvature="0" />
    <path
       style="opacity:0.79000005;fill:#00008b;fill-opacity:1;fill-rule:evenodd;stroke:#00008b;stroke-width:0.04724703;stroke-linecap:round;stroke-linejoin:round;stroke-miterlimit:4;stroke-dasharray:none;stroke-dashoffset:0;stroke-opacity:1"
       d="m -109.55136,108.81055 c -0.39137,-0.34562 -1.31916,-1.25706 -1.31916,-1.29591 0,-0.0393 2.07723,-1.02686 2.61634,-1.24392 0.54516,-0.2195 0.56269,-0.21893 0.47993,0.0156 -0.11238,0.31852 -0.35528,0.85204 -0.74416,1.63453 -0.41982,0.84473 -0.60309,1.15734 -0.6786,1.15746 -0.028,5e-5 -0.18751,-0.12046 -0.35435,-0.2678 z m 0.6674,-0.59566 c 0.22269,-0.42296 0.45972,-1.07913 0.48167,-1.33344 0.0119,-0.13737 0.006,-0.14162 -0.18536,-0.1379 -0.29736,0.006 -1.30444,0.51276 -1.59425,0.80257 -0.0409,0.0409 -0.0744,0.11712 -0.0744,0.16931 0,0.1943 0.89904,0.96265 1.08457,0.92692 0.0384,-0.007 0.1679,-0.19975 0.28778,-0.42746 z"
       id="path2479"
       inkscape:connector-curvature="0" />
    <path
       style="opacity:0.79000005;fill:#00008b;fill-opacity:1;fill-rule:evenodd;stroke:#00008b;stroke-width:0.04724703;stroke-linecap:round;stroke-linejoin:round;stroke-miterlimit:4;stroke-dasharray:none;stroke-dashoffset:0;stroke-opacity:1"
       d="m -114.14517,107.1072 c -0.073,-0.011 -0.1429,-0.0465 -0.15535,-0.0789 -0.0124,-0.0324 0.19275,-0.68469 0.45599,-1.44944 0.26324,-0.76475 0.51261,-1.49145 0.55416,-1.61488 0.0415,-0.12343 0.0891,-0.22442 0.10563,-0.22442 0.0487,0 1.02972,2.50429 1.08836,2.77835 0.11975,0.55967 -0.002,0.62636 -1.12316,0.61635 -0.4361,-0.004 -0.85263,-0.0161 -0.92563,-0.027 z m 1.41264,-0.20812 c 0.12599,-0.0317 0.23229,-0.0922 0.263,-0.14954 0.0841,-0.15715 0.0524,-0.46175 -0.0924,-0.8875 -0.12233,-0.35965 -0.54899,-1.3355 -0.62358,-1.42622 -0.037,-0.045 -0.59634,1.54651 -0.67153,1.91084 -0.0697,0.33791 -0.0128,0.48837 0.20894,0.55233 0.21847,0.063 0.66558,0.063 0.9156,9e-5 z"
       id="path2481"
       inkscape:connector-curvature="0" />
    <path
       style="opacity:0.79000005;fill:#00008b;fill-opacity:1;fill-rule:evenodd;stroke:#00008b;stroke-width:0.04724703;stroke-linecap:round;stroke-linejoin:round;stroke-miterlimit:4;stroke-dasharray:none;stroke-dashoffset:0;stroke-opacity:1"
       d="m -117.35276,108.78314 c -0.41795,-0.72267 -1.21902,-2.44169 -1.21902,-2.61589 0,-0.0962 0.0581,-0.0839 0.55984,0.11878 0.43219,0.17455 2.54955,1.16135 2.59987,1.21167 0.0475,0.0475 -1.61723,1.58074 -1.71621,1.58074 -0.0295,0 -0.13056,-0.13288 -0.22448,-0.2953 z m 0.5187,-0.22475 c 0.32493,-0.19811 0.76577,-0.71887 0.76619,-0.90509 2.6e-4,-0.11544 -0.33161,-0.34315 -0.92955,-0.6378 -0.57754,-0.2846 -0.89142,-0.36313 -0.94047,-0.23531 -0.0648,0.16892 0.29211,1.10666 0.61092,1.60505 0.18865,0.29491 0.25499,0.31821 0.49291,0.17315 z"
       id="path2483"
       inkscape:connector-curvature="0" />
    <path
       style="opacity:0.79000005;fill:#00008b;fill-opacity:1;fill-rule:evenodd;stroke:#00008b;stroke-width:0.04724703;stroke-linecap:round;stroke-linejoin:round;stroke-miterlimit:4;stroke-dasharray:none;stroke-dashoffset:0;stroke-opacity:1"
       d="m -118.19088,112.44572 c -0.0633,-0.0119 -0.42479,-0.12803 -0.80319,-0.25805 -0.74918,-0.25743 -1.37628,-0.53418 -1.56209,-0.68937 -0.10509,-0.0878 -0.1103,-0.10654 -0.0472,-0.17014 0.16993,-0.1714 2.2527,-0.90136 2.66904,-0.93544 0.17977,-0.0147 0.18429,-0.0111 0.24504,0.19514 0.0844,0.28654 0.12987,1.00384 0.0883,1.3922 -0.0489,0.45691 -0.16186,0.54606 -0.58984,0.46566 z m 0.36456,-0.34347 c 0.046,-0.0869 0.058,-0.29569 0.0455,-0.79027 -0.009,-0.36968 -0.0335,-0.68859 -0.0537,-0.7087 -0.0339,-0.0338 -2.37952,0.73351 -2.41429,0.78975 -0.009,0.0138 0.44501,0.21098 1.00789,0.43811 1.11872,0.45144 1.30057,0.48629 1.41453,0.27111 z"
       id="path2485"
       inkscape:connector-curvature="0" />
    <path
       style="opacity:0.79000005;fill:#00008b;fill-opacity:1;fill-rule:evenodd;stroke:#00008b;stroke-width:0.04724703;stroke-linecap:round;stroke-linejoin:round;stroke-miterlimit:4;stroke-dasharray:none;stroke-dashoffset:0;stroke-opacity:1"
       d="m -118.47729,116.6404 c 0,-0.27763 0.95363,-2.35987 1.24453,-2.71741 l 0.11391,-0.14 0.18304,0.13838 c 0.10067,0.0761 0.49132,0.44054 0.86812,0.80984 l 0.68508,0.67145 -0.42522,0.19607 c -1.28854,0.59417 -2.4657,1.08648 -2.59787,1.08648 -0.0394,0 -0.0716,-0.0202 -0.0716,-0.0448 z m 1.02113,-0.56301 c 0.56065,-0.23319 1.12431,-0.51588 1.23492,-0.61934 0.16574,-0.15504 0.13374,-0.31788 -0.13202,-0.67169 -0.39408,-0.52464 -0.66049,-0.6201 -0.92728,-0.33224 -0.22791,0.24593 -0.76731,1.53109 -0.70775,1.6863 0.0401,0.1046 0.16453,0.0899 0.53213,-0.063 z"
       id="path2487"
       inkscape:connector-curvature="0" />
    <path
       style="opacity:0.79000005;fill:#00008b;fill-opacity:1;fill-rule:evenodd;stroke:#00008b;stroke-width:0.04724703;stroke-linecap:round;stroke-linejoin:round;stroke-miterlimit:4;stroke-dasharray:none;stroke-dashoffset:0;stroke-opacity:1"
       d="m -113.38608,118.44516 c -0.28484,-0.61114 -0.7389,-1.80405 -0.80301,-2.1097 -0.0593,-0.28247 -0.025,-0.47497 0.0935,-0.52611 0.12187,-0.0525 1.23679,-0.0856 1.59483,-0.0472 0.36676,0.0393 0.46646,0.11595 0.42458,0.32652 -0.11649,0.58576 -0.97147,2.81717 -1.07942,2.81717 -0.009,0 -0.11244,-0.2073 -0.23053,-0.46066 z m 0.88253,-1.7305 c 0.0927,-0.31974 0.10867,-0.43692 0.0697,-0.50979 -0.0846,-0.15804 -0.33421,-0.22837 -0.81058,-0.22837 -0.5145,0 -0.64987,0.0608 -0.64987,0.29194 0,0.11893 0.61711,2.09285 0.69689,2.22912 0.0315,0.0538 0.54111,-1.25571 0.69389,-1.7829 z"
       id="path2489"
       inkscape:connector-curvature="0" />
    <path
       style="opacity:0.79000005;fill:#00008b;fill-opacity:1;fill-rule:evenodd;stroke:#00008b;stroke-width:0.04724703;stroke-linecap:round;stroke-linejoin:round;stroke-miterlimit:4;stroke-dasharray:none;stroke-dashoffset:0;stroke-opacity:1"
       d="m -113.95322,115.1964 c -0.42408,-0.0805 -0.85236,-0.24479 -1.17118,-0.44938 -0.30346,-0.19473 -0.96621,-0.89199 -1.23871,-1.3032 -0.86222,-1.30114 -0.91527,-2.30425 -0.19588,-3.70392 0.39894,-0.7762 0.93994,-1.31145 1.6961,-1.67806 0.66275,-0.32133 0.92053,-0.37592 1.77176,-0.37519 0.70357,6.1e-4 0.74996,0.007 1.18118,0.15528 0.56255,0.19384 1.00246,0.45225 1.39508,0.81953 0.37465,0.35047 0.57622,0.6207 0.8254,1.10657 0.54619,1.06502 0.58239,1.79993 0.14452,2.93361 -0.47839,1.23854 -1.42608,2.08218 -2.72077,2.42202 -0.49977,0.13118 -1.21661,0.16208 -1.6875,0.0727 z m 1.6238,-0.325 c 0.82089,-0.20918 1.42955,-0.55851 1.94704,-1.11744 0.96643,-1.04384 1.16197,-2.58616 0.4961,-3.91298 -0.35776,-0.71288 -1.03627,-1.3268 -1.80468,-1.63288 -0.55641,-0.22163 -0.91727,-0.27462 -1.70727,-0.25069 -0.60416,0.0183 -0.75983,0.0393 -1.05526,0.14269 -0.48709,0.17038 -0.824,0.38286 -1.21415,0.76573 -0.7807,0.76613 -1.1277,1.55297 -1.12516,2.55134 0.002,0.63156 0.0836,0.97229 0.37851,1.5727 0.34898,0.71052 1.04185,1.37998 1.75574,1.6964 0.72274,0.32035 1.54273,0.38553 2.32913,0.18513 z"
       id="path2491"
       inkscape:connector-curvature="0" />
  </g>
</svg>
