<?xml version="1.0" encoding="UTF-8" standalone="no"?>
<!-- Created with Inkscape (http://www.inkscape.org/) -->

<svg
   xmlns:dc="http://purl.org/dc/elements/1.1/"
   xmlns:cc="http://creativecommons.org/ns#"
   xmlns:rdf="http://www.w3.org/1999/02/22-rdf-syntax-ns#"
   xmlns:svg="http://www.w3.org/2000/svg"
   xmlns="http://www.w3.org/2000/svg"
   xmlns:sodipodi="http://sodipodi.sourceforge.net/DTD/sodipodi-0.dtd"
   xmlns:inkscape="http://www.inkscape.org/namespaces/inkscape"
   width="480"
   height="350"
   viewBox="0 0 127 92.604167"
   version="1.1"
   id="svg8"
   inkscape:version="0.92.2 (unknown)"
   sodipodi:docname="logo-big.svg">
  <defs
     id="defs2" />
  <sodipodi:namedview
     id="base"
     pagecolor="#ffffff"
     bordercolor="#666666"
     borderopacity="1.0"
     inkscape:pageopacity="0.0"
     inkscape:pageshadow="2"
     inkscape:zoom="0.98994949"
     inkscape:cx="95.089159"
     inkscape:cy="254.47365"
     inkscape:document-units="mm"
     inkscape:current-layer="layer1"
     showgrid="false"
     fit-margin-top="0"
     fit-margin-left="0"
     fit-margin-right="0"
     fit-margin-bottom="0"
     units="px"
     inkscape:window-width="1325"
     inkscape:window-height="744"
     inkscape:window-x="41"
     inkscape:window-y="24"
     inkscape:window-maximized="1" />
  <metadata
     id="metadata5">
    <rdf:RDF>
      <cc:Work
         rdf:about="">
        <dc:format>image/svg+xml</dc:format>
        <dc:type
           rdf:resource="http://purl.org/dc/dcmitype/StillImage" />
        <dc:title />
      </cc:Work>
    </rdf:RDF>
  </metadata>
  <g
     inkscape:label="Layer 1"
     inkscape:groupmode="layer"
     id="layer1"
     transform="translate(-33.398548,-61.163327)">
    <path
       inkscape:connector-curvature="0"
       id="path846"
       d="m 40.60303,152.84914 c -0.07335,-0.50466 -0.134409,-11.18518 -0.135713,-23.73449 l -0.0024,-22.81691 -3.280696,-0.003 c -1.804382,-0.002 -3.404389,-0.093 -3.55557,-0.20215 -0.207556,-0.14981 -0.260243,-1.09271 -0.215129,-3.85005 l 0.05974,-3.651641 7.731076,-0.06434 c 5.008501,-0.04159 7.807807,0.02285 7.948965,0.183524 0.302901,0.344503 95.262297,0.344503 95.565187,0 0.14116,-0.160548 2.94047,-0.225174 7.94897,-0.183524 l 7.73108,0.06434 v 3.792621 3.79263 l -4.14122,0.0665 -4.14119,0.0665 v 22.98069 c 0,15.05653 -0.0742,23.03286 -0.21513,23.13193 -0.11831,0.0831 -0.21512,0.42 -0.21512,0.74849 v 0.59728 H 96.211148 40.736373 Z M 151.68592,129.29816 V 106.54244 H 96.182998 40.680078 v 22.75572 22.75575 h 55.50292 55.502922 z m -99.107398,15.99198 c -1.124722,-0.45318 -2.361444,-1.97499 -2.55406,-3.1428 -0.17065,-1.03462 -0.172341,-1.03161 0.64449,-1.14166 0.552175,-0.0743 0.652943,0.0115 0.808257,0.68998 0.395602,1.72778 2.440077,2.79145 4.458973,2.31988 1.860505,-0.43459 2.623311,-1.61522 2.048399,-3.17038 -0.29043,-0.78564 -1.430374,-1.39475 -3.751464,-2.00454 -2.522514,-0.6627 -3.872296,-1.97116 -3.872296,-3.75377 0,-2.44191 1.603881,-3.8796 4.347639,-3.89717 2.325721,-0.015 3.628971,0.83844 4.372762,2.86316 0.284044,0.77322 0.295265,0.98134 0.062,1.14956 -0.661651,0.47714 -1.166963,0.22104 -1.559231,-0.79022 -0.508928,-1.31198 -1.435093,-1.77511 -3.282399,-1.64132 -1.705453,0.12351 -2.490483,0.82052 -2.391264,2.12312 0.08909,1.16961 0.763764,1.65746 3.305924,2.3905 3.289294,0.94845 4.392585,2.00271 4.394264,4.19893 0.0013,1.73418 -0.851768,3.08688 -2.415408,3.82997 -1.002844,0.4766 -3.406145,0.46449 -4.616572,-0.0234 z m 83.186558,0.17333 c -1.66357,-0.57557 -2.80242,-1.90076 -3.11538,-3.62519 -0.12461,-0.68656 -0.0856,-0.79521 0.28543,-0.79521 0.23636,0 0.56635,-0.0596 0.73331,-0.13249 0.21,-0.0917 0.38415,0.17343 0.56505,0.86019 0.18399,0.69847 0.49981,1.17203 1.06573,1.598 2.796,2.10454 7.09844,-0.35712 5.1431,-2.94266 -0.37323,-0.49354 -1.04004,-0.81492 -2.85044,-1.37384 -3.61822,-1.1171 -4.52726,-1.94667 -4.49951,-4.10618 0.03,-2.33428 1.62787,-3.73915 4.27403,-3.75779 2.46073,-0.0173 4.10468,1.10583 4.54603,3.10594 0.16625,0.75341 -0.12104,1.1109 -0.89799,1.11732 -0.32717,0.002 -0.50829,-0.21581 -0.65233,-0.78705 -0.30415,-1.20628 -1.36996,-1.90075 -2.91711,-1.90075 -0.69831,0 -1.54162,0.15997 -1.87403,0.3555 -0.8082,0.47535 -1.24082,1.6557 -0.90976,2.48211 0.28918,0.72189 1.00763,1.09619 3.4795,1.81276 2.36952,0.68689 3.29482,1.29611 3.88263,2.55637 0.97164,2.08322 -0.1441,4.72451 -2.30712,5.46161 -0.96266,0.32804 -3.09778,0.36659 -3.95114,0.0713 z m -68.839433,-7.12672 v -7.11064 l 0.806728,0.076 0.806728,0.076 0.06061,2.87505 0.06061,2.87507 h 3.213259 3.21326 l 0.06061,-2.87507 0.06061,-2.87505 h 0.752947 0.752945 l 0.05709,7.03472 0.05709,7.03471 h -0.86381 -0.86381 v -3.30326 -3.30326 H 71.8736 68.646685 v 3.30326 3.30326 H 67.78615 66.92564 Z m 15.584201,6.19308 c 0.23742,-0.74852 3.79175,-11.31607 4.32067,-12.84599 0.17624,-0.50981 1.7113,-0.60926 1.88793,-0.12234 2.87926,7.93735 4.88283,13.55976 4.88291,13.70239 6e-5,0.10088 -0.37427,0.18352 -0.83184,0.18352 h -0.83195 l -0.69253,-2.08698 -0.69253,-2.08698 -2.72228,0.0682 -2.72228,0.0684 -0.63728,2.01865 -0.63727,2.01866 h -0.8073 -0.8073 z m 7.43397,-4.89371 c -2.1e-4,-0.10088 -0.43817,-1.5048 -0.97312,-3.11973 -0.53496,-1.61491 -1.02183,-3.09193 -1.08195,-3.28223 -0.0601,-0.19031 -0.52933,1.02089 -1.04267,2.69153 -0.51335,1.67067 -1.00469,3.23024 -1.09186,3.46575 -0.1449,0.39147 0.0281,0.4282 2.01579,0.4282 1.19586,0 2.17407,-0.0827 2.17381,-0.18352 z m 9.25097,-1.31783 v -7.12914 l 3.173122,0.12087 c 3.62442,0.13805 4.29248,0.36231 5.45875,1.83241 1.14813,1.44724 1.54865,3.06114 1.43564,5.78497 -0.10726,2.58687 -0.74443,4.35059 -1.94331,5.37972 -1.05323,0.90409 -2.13363,1.13743 -5.27377,1.13892 l -2.850432,9.3e-4 z m 5.916002,5.39061 c 0.47328,-0.14718 1.04023,-0.44937 1.25988,-0.6715 1.64463,-1.66323 1.88165,-6.6361 0.41104,-8.62394 -0.89424,-1.20875 -1.53499,-1.44499 -3.91908,-1.44499 h -2.16195 v 5.50541 5.50542 l 1.7748,-0.002 c 0.97614,-7.3e-4 2.16203,-0.12182 2.63531,-0.269 z m 11.50933,-5.35737 v -7.09589 h 4.51767 4.51768 v 0.85641 0.85642 h -3.76472 -3.76474 v 2.20215 2.20217 h 3.56325 3.56323 l -0.0674,0.79522 -0.0674,0.79523 -3.44204,0.028 -3.44204,0.028 v 2.41884 2.41885 l 3.81851,0.0668 3.81853,0.0669 v 0.7284 0.7284 h -4.62525 -4.62525 z M 83.015328,122.70906 c -2.584757,-0.95081 -3.774988,-4.92808 -2.408282,-8.04752 1.316362,-3.00453 4.767022,-3.59425 6.891592,-1.17778 1.06469,1.21097 1.46542,2.61069 1.31025,4.5766 -0.22682,2.87358 -1.6566,4.59562 -3.95953,4.7689 -0.68823,0.0517 -1.51354,-0.002 -1.83403,-0.1202 z m 3.14326,-1.44858 c 0.92772,-0.6002 1.47168,-1.98702 1.48324,-3.78152 0.0162,-2.52214 -1.00856,-4.07233 -2.82329,-4.27066 -2.00606,-0.21924 -3.3083,1.04804 -3.59398,3.49747 -0.44601,3.82411 2.23616,6.30009 4.93403,4.55471 z m 21.642832,1.28609 c -1.78048,-0.8782 -2.68447,-2.60948 -2.67111,-5.11564 0.0152,-2.85295 1.16083,-4.67299 3.31068,-5.25956 2.09125,-0.57063 4.18403,0.53581 5.00467,2.64591 0.80748,2.07624 0.45838,5.10898 -0.76189,6.61872 -1.10733,1.37002 -3.33089,1.8758 -4.88235,1.11057 z m 2.59011,-0.83364 c 0.64178,0 1.82797,-1.35436 2.10402,-2.40231 0.86619,-3.28833 -0.52987,-6.15849 -2.9966,-6.16077 -1.95609,-0.002 -3.20401,1.64455 -3.20462,4.22776 -4.3e-4,1.62981 0.35627,2.74494 1.14108,3.56772 0.5609,0.58806 1.74488,1.04001 2.26443,0.86442 0.15758,-0.0532 0.46884,-0.0969 0.69169,-0.0969 z m -44.756649,-4.282 v -5.26074 h 0.918894 0.918896 l 1.257755,4.34316 c 0.691767,2.38875 1.321244,4.42286 1.398838,4.52028 0.0776,0.0973 0.756194,-1.85704 1.508002,-4.34319 l 1.366921,-4.52025 h 0.833024 0.833029 v 5.26074 5.26072 h -0.645383 c -0.354961,0 -0.633919,-0.0828 -0.619907,-0.1835 0.01401,-0.10088 0.0081,-2.05535 -0.0131,-4.34316 l -0.03858,-4.15965 -1.331456,4.3424 c -1.259591,4.10804 -1.361321,4.34243 -1.884865,4.34316 -0.524748,7.3e-4 -0.61834,-0.21785 -1.806886,-4.22006 -0.689409,-2.32146 -1.335841,-4.32543 -1.436517,-4.45327 -0.101418,-0.1288 -0.183036,1.7533 -0.183036,4.22082 v 4.45326 h -0.537822 -0.537819 z m 30.763247,0.62244 v -4.63832 l -1.55968,-0.0719 c -1.43119,-0.0659 -1.56533,-0.11725 -1.62841,-0.62245 l -0.0687,-0.55055 h 3.79465 3.794662 l -0.0688,0.55055 c -0.0631,0.5052 -0.19723,0.55647 -1.628412,0.62245 l -1.55968,0.0719 v 4.63832 4.63828 h -0.53781 -0.53782 z m 22.803522,-0.62244 v -5.26074 l 2.74287,4.8e-4 c 3.3373,5e-4 4.08058,0.30268 4.55105,1.85043 0.51338,1.68887 -0.0776,3.05097 -1.57712,3.63485 -0.83509,0.32515 -0.83908,0.33263 -0.35442,0.66369 0.2696,0.18416 0.94717,1.10558 1.50572,2.04762 1.47023,2.47969 1.42991,2.32453 0.60404,2.32453 -0.67158,0 -0.80715,-0.14197 -1.74681,-1.82912 -1.34129,-2.40837 -1.82017,-2.82002 -3.28037,-2.82002 h -1.1542 v 2.3245 2.3245 h -0.64538 -0.64538 z m 5.80844,-1.10108 c 0.57473,-0.65368 0.56844,-1.98409 -0.0122,-2.58175 -0.34702,-0.35722 -0.88053,-0.47722 -2.47396,-0.55648 l -2.03152,-0.10109 v 1.86433 1.86433 h 2.04372 c 1.75688,0 2.10411,-0.0687 2.47396,-0.48938 z m 19.68417,-10.2768 c -0.18419,-0.33898 -95.332439,-0.33898 -95.516641,0 -0.08849,0.16285 15.885586,0.24469 47.758329,0.24469 31.872732,0 47.846812,-0.0817 47.758312,-0.24469 z m -96.054461,-3.67027 v -3.425613 h -7.421902 -7.421902 v 3.262473 c 0,1.79437 0.06453,3.3359 0.143418,3.42561 0.07888,0.0898 3.418736,0.16312 7.421902,0.16312 h 7.278484 z m 111.388401,-0.0644 0.0598,-3.367617 -7.48178,0.06444 -7.48178,0.06444 -0.0607,3.044977 c -0.0334,1.67478 -0.0117,3.19022 0.0481,3.36767 0.0878,0.26013 1.53732,0.31017 7.48264,0.25826 l 7.37378,-0.0644 z M 49.157023,96.426769 c -1.510331,-0.439138 -2.389925,-1.209266 -2.692323,-2.357251 -0.3457,-1.312387 0.194771,-2.36195 1.640889,-3.1865 1.534939,-0.875194 5.2979,-0.993849 8.42016,-0.265498 1.201789,0.28034 2.278951,0.509715 2.393695,0.509715 0.235401,0 1.024124,-1.977497 1.458606,-3.657042 0.158543,-0.612877 0.924219,-4.377664 1.701501,-8.366217 1.937245,-9.940764 2.695224,-12.291141 4.814239,-14.92824 2.77628,-3.455059 6.339532,-3.776403 7.739287,-0.697938 0.439969,0.967608 0.488865,1.353186 0.403372,3.180909 -0.0974,2.082232 -0.963701,5.682108 -1.508999,6.270546 -0.140547,0.151666 -0.660741,0.344517 -1.155986,0.428575 l -0.900444,0.152817 0.719971,-1.774352 c 1.196992,-2.949938 1.784241,-6.161363 1.41324,-7.728455 -0.347523,-1.467931 -1.13183,-2.072008 -2.521859,-1.942366 -1.86434,0.173873 -3.336492,1.873935 -4.390899,5.070656 -0.246305,0.746738 -1.168615,5.018161 -2.049579,9.492036 -2.069459,10.50955 -2.504628,12.102004 -3.875631,14.182367 -0.637747,0.967723 -0.667085,0.944993 2.582928,2.000951 3.718121,1.208041 5.585691,1.566522 7.550099,1.449248 l 1.763622,-0.105329 -0.448448,1.209167 -0.448446,1.209179 -2.151277,-0.134585 c -2.133561,-0.13347 -3.614449,-0.508909 -8.400674,-2.129724 l -2.377101,-0.804989 -1.122438,0.91719 c -2.24335,1.833129 -6.06733,2.729113 -8.557505,2.005087 z m 5.219769,-0.899604 c 1.052655,-0.410735 2.915238,-1.690623 3.186318,-2.189496 0.131905,-0.24276 -0.312643,-0.404193 -3.437556,-1.24833 -2.678282,-0.723497 -5.641325,-0.606859 -6.446751,0.253769 -0.986622,1.054235 -0.555893,2.569495 0.915806,3.221703 1.675837,0.742675 3.818074,0.728718 5.782183,-0.03763 z m 54.283598,0.751828 c -1.03062,-0.229182 -1.54888,-0.582156 -2.31844,-1.579065 -1.92847,-2.498194 -1.1641,-7.378482 1.6736,-10.685445 2.48824,-2.899725 5.5888,-3.611284 7.71153,-1.769757 1.80333,1.564458 2.07219,5.107692 0.63801,8.408098 -1.69221,3.894206 -4.9139,6.246782 -7.7047,5.626169 z m 2.90963,-0.995898 c 2.42689,-1.705975 4.51829,-8.712058 3.46035,-11.59196 -0.47684,-1.298059 -1.15104,-1.861944 -2.22624,-1.861944 -1.15318,0 -1.93679,0.441011 -2.82263,1.588557 -2.64484,3.426174 -3.52074,10.358504 -1.5111,11.959507 0.69907,0.556925 2.24002,0.510102 3.09962,-0.09417 z m 8.87164,0.992868 c -0.85947,-0.307899 -2.03795,-1.184722 -2.1873,-1.627423 -0.11377,-0.337165 0.64202,-1.758131 0.95469,-1.794961 0.0632,-0.0069 0.2909,0.325218 0.50593,0.73926 0.56581,1.089466 1.55808,1.692061 2.78794,1.693143 1.70274,0.0023 2.93743,-1.211596 2.93743,-2.886015 0,-0.813937 -0.34436,-1.273678 -2.74921,-3.670459 -1.6703,-1.664692 -2.03117,-2.480384 -1.74532,-3.945146 0.5594,-2.866691 4.25513,-4.65104 6.2105,-2.998533 0.68159,0.576013 0.83793,1.849004 0.30877,2.514068 -0.36129,0.454076 -0.38305,0.439176 -0.76118,-0.521478 -0.70213,-1.783746 -2.63628,-2.173381 -4.05389,-0.81665 -0.64469,0.617004 -0.83152,1.475374 -0.52128,2.394913 0.0717,0.21264 0.90088,1.111592 1.84253,1.997684 0.94166,0.886094 1.89909,1.959839 2.12761,2.386125 1.05094,1.960362 -0.15739,5.069062 -2.37955,6.121862 -1.00837,0.477726 -2.5542,0.672796 -3.27767,0.41361 z m -44.0024,-0.528727 c -1.674968,-0.942994 -2.443958,-3.234801 -2.003895,-5.972195 0.703382,-4.375362 4.208343,-8.670132 7.081723,-8.677507 0.74359,-0.0024 1.05734,0.141487 1.55968,0.712836 0.34586,0.393388 0.62829,0.916393 0.62763,1.162263 -0.006,2.184745 -1.98782,4.728918 -4.957498,6.363779 -0.999802,0.55041 -1.995708,1.068652 -2.213123,1.151637 -0.33473,0.127774 -0.37245,0.31016 -0.246161,1.190269 0.175616,1.223912 0.823205,2.526817 1.443623,2.904483 1.703841,1.037156 3.132809,0.689236 4.926359,-1.199411 1.37807,-1.451156 1.88245,-1.559311 0.97731,-0.209563 -0.68754,1.025267 -2.364,2.432032 -3.349669,2.810785 -1.160722,0.446052 -2.813259,0.34406 -3.845979,-0.237376 z m 1.506134,-6.626463 c 2.368331,-1.435751 4.287464,-4.135057 4.332624,-6.093949 0.0266,-1.155274 -0.32021,-1.509092 -1.31734,-1.34385 -1.00267,0.166166 -1.825596,0.918558 -2.76465,2.52769 -1.182666,2.026571 -2.260478,5.693152 -1.673535,5.693152 0.07218,0 0.712484,-0.352371 1.422901,-0.783043 z m 10.506204,6.795918 c -0.21635,-0.296516 -1.71421,-11.9907 -1.72913,-13.499792 -0.004,-0.365059 0.24416,-0.641215 0.85762,-0.955857 0.47449,-0.24336 0.89435,-0.397716 0.93303,-0.343012 0.0387,0.05471 0.18658,2.136458 0.32867,4.626132 0.39693,6.955003 0.69687,8.808671 1.42529,8.808671 0.91416,0 4.0159,-4.641196 4.72535,-7.070648 0.52567,-1.80008 0.49514,-3.700974 -0.0763,-4.752675 l -0.46268,-0.851485 0.83984,-0.756552 c 0.76723,-0.691145 0.86526,-0.721684 1.13371,-0.353113 0.2001,0.274743 0.29066,1.074294 0.28383,2.506123 -0.008,1.759772 -0.10625,2.340674 -0.60024,3.562257 -1.55109,3.835782 -5.62745,9.428898 -6.87195,9.428898 -0.29281,0 -0.64697,-0.157028 -0.78701,-0.348947 z m 11.085,-0.403889 c -0.42708,-0.577276 -0.55694,-1.022221 -0.55694,-1.908119 0,-0.917111 0.97802,-7.582849 1.624872,-11.074419 0.0906,-0.488877 0.35377,-0.746487 1.08894,-1.065824 0.53322,-0.23162 1.00577,-0.379878 1.0501,-0.329449 0.0443,0.05039 -0.44109,2.231723 -1.07873,4.847323 -1.31824,5.407491 -1.53867,6.939843 -1.12729,7.836468 0.43615,0.950636 1.20267,0.90325 2.27488,-0.140643 1.4952,-1.455669 1.33829,-0.695431 -0.20919,1.013581 -1.65775,1.830796 -2.21023,1.978715 -3.066642,0.821082 z m 31.819762,0.519399 c -0.23665,-0.111376 -0.67227,-0.498868 -0.96807,-0.861204 -0.49761,-0.609523 -0.53782,-0.837907 -0.53782,-3.054016 0,-2.34748 0.019,-2.437704 0.95053,-4.52689 1.73405,-3.888732 4.34849,-6.242799 6.9389,-6.247872 0.98985,-0.0024 1.34126,0.113193 1.85964,0.60932 0.73601,0.704402 0.89975,0.751013 0.89975,0.256139 0,-0.3482 1.90352,-1.475898 2.1048,-1.246957 0.0562,0.06396 -0.44281,2.461745 -1.10888,5.328505 -1.27247,5.476615 -1.42577,6.827321 -0.87616,7.719798 0.46889,0.76142 0.98697,0.680007 2.03995,-0.320603 0.50031,-0.475438 0.95483,-0.813058 1.01003,-0.750283 0.1773,0.201673 -1.26279,2.060529 -2.11946,2.735763 -0.74277,0.58547 -0.89562,0.622625 -1.4626,0.3555 -0.73677,-0.3471 -1.31202,-1.557171 -1.30116,-2.736966 0.004,-0.450688 0.14223,-1.534082 0.30683,-2.407546 0.16459,-0.873464 0.2746,-1.616166 0.24446,-1.650444 -0.0302,-0.03431 -0.50216,0.740914 -1.04894,1.722647 -1.13396,2.036025 -3.2234,4.42176 -4.33542,4.950236 -0.82193,0.390609 -1.91935,0.443383 -2.59638,0.124873 z m 3.23646,-1.450244 c 1.91673,-0.990258 4.34366,-5.153713 5.19529,-8.912585 0.33916,-1.49702 0.34457,-1.731833 0.0537,-2.324511 -0.48573,-0.989404 -1.66348,-1.625717 -2.62811,-1.419882 -2.30038,0.490838 -4.8642,4.679196 -5.55809,9.07992 -0.28456,1.804645 0.058,3.246367 0.88402,3.721054 0.7146,0.410635 1.02135,0.38912 2.05326,-0.143996 z m -30.8497,-19.215068 c -0.84216,-2.165424 -0.85753,-2.10168 0.50716,-2.10168 1.15907,0 1.20548,0.02416 1.05899,0.550546 -0.26155,0.93983 -0.93077,2.630363 -1.04127,2.630363 -0.0578,0 -0.29402,-0.485651 -0.52488,-1.079229 z m 1.25447,-1.551134 c 0.003,-0.187653 -0.28536,-0.305863 -0.74731,-0.305863 -0.87051,0 -0.87059,2.52e-4 -0.38584,1.443982 l 0.3671,1.093296 0.3802,-0.962776 c 0.20911,-0.529538 0.38274,-1.100421 0.38585,-1.268639 z m -5.552582,-1.039914 c 0.39029,-0.807462 0.767932,-1.468112 0.839222,-1.468112 0.0713,0 0.50175,0.365857 0.95654,0.813013 l 0.82691,0.813024 -1.43871,0.655089 c -0.791282,0.360305 -1.541052,0.6551 -1.666132,0.6551 -0.12509,0 0.0919,-0.660652 0.48217,-1.468114 z m 1.036182,0.585145 c 0.97798,-0.44507 1.00166,-0.49704 0.50884,-1.116426 -0.51998,-0.653505 -0.81039,-0.55399 -1.217582,0.417233 -0.53853,1.284484 -0.55079,1.2724 0.708742,0.699193 z m 7.34925,0.204512 -1.36778,-0.653026 0.82997,-0.798729 c 0.45646,-0.439301 0.88906,-0.80037 0.96132,-0.802378 0.0724,-0.0024 0.44096,0.657014 0.81934,1.464476 0.78951,1.6848 0.72196,1.727731 -1.24285,0.789657 z m 0.97343,-0.787638 c -0.5267,-1.103534 -0.7686,-1.192788 -1.32787,-0.489892 -0.45185,0.567884 -0.43886,0.593465 0.54885,1.080802 1.16674,0.575671 1.29086,0.481526 0.77902,-0.59091 z m -6.27861,-0.343003 c -0.90761,-0.44981 -1.99166,-1.93272 -2.1603,-2.955137 -0.10671,-0.646971 -0.0162,-1.145526 0.36587,-2.014589 1.31109,-2.982506 5.5594,-3.097536 7.00735,-0.189728 0.61309,1.231227 0.6148,1.941487 0.008,3.296884 -0.84994,1.898262 -3.3495,2.789998 -5.22085,1.86257 z m 3.46733,-0.369937 c 3.1878,-1.646635 2.20968,-6.283676 -1.3879,-6.579656 -1.53405,-0.126213 -2.59429,0.367634 -3.41419,1.590289 -1.543242,2.30129 0.22331,5.444855 3.05978,5.444855 0.47328,0 1.25732,-0.204967 1.74231,-0.455488 z m -8.061732,-2.502019 c -0.75433,-0.271654 -1.28677,-0.583603 -1.18321,-0.693219 0.19739,-0.208936 2.44973,-0.987557 2.85672,-0.987557 0.13605,0 0.2358,0.465804 0.2358,1.101094 0,1.269767 0.004,1.268626 -1.90931,0.579682 z m 1.69418,-0.579682 c 0,-0.471027 -0.0308,-0.856399 -0.0686,-0.856399 -0.0376,0 -0.59432,0.180358 -1.23698,0.400806 l -1.16847,0.400808 1.07564,0.436623 c 1.43688,0.583262 1.39833,0.593795 1.39833,-0.381838 z m 9.035352,0 c 0,-0.748255 0.0909,-1.101094 0.28365,-1.101094 0.43028,0 2.59592,0.751822 2.79932,0.971816 0.17024,0.184119 -2.2125,1.230359 -2.80204,1.230359 -0.18952,0 -0.28093,-0.358231 -0.28093,-1.101081 z m 1.92682,0.249949 0.7436,-0.291842 -1.05083,-0.407259 c -1.39768,-0.541666 -1.40446,-0.53942 -1.40446,0.465635 0,0.957497 -0.0987,0.944023 1.71169,0.233466 z M 99.445488,65.167613 c -0.39456,-0.816899 -0.68403,-1.523205 -0.64327,-1.569553 0.0407,-0.0464 0.79158,0.2564 1.668492,0.672813 l 1.59441,0.757088 -0.84357,0.811737 c -0.46397,0.446449 -0.89198,0.812055 -0.95114,0.812466 -0.0592,4.1e-4 -0.430362,-0.667639 -0.824922,-1.484551 z m 1.507152,0.59677 c 0.21639,-0.222728 0.39342,-0.481273 0.39342,-0.574553 0,-0.23325 -1.697742,-1.086012 -1.840002,-0.924223 -0.1668,0.189739 0.590412,1.903722 0.841042,1.903722 0.11667,0 0.38916,-0.182229 0.60554,-0.404946 z m 6.34433,0.07193 -0.8256,-0.80403 1.57855,-0.755287 c 0.8682,-0.41541 1.6127,-0.717135 1.65446,-0.670524 0.0988,0.110458 -1.32375,3.055097 -1.47011,3.043059 -0.0615,-0.0045 -0.48321,-0.371009 -0.9373,-0.813218 z m 1.44037,-0.553658 c 0.20446,-0.48768 0.32019,-0.945347 0.25717,-1.017037 -0.15119,-0.171945 -1.84,0.698406 -1.84,0.948277 0,0.199703 0.85715,0.955446 1.08366,0.955446 0.0702,0 0.2947,-0.399006 0.49917,-0.886686 z m -5.67026,-0.701198 c 0,-0.06588 0.26121,-0.861905 0.58047,-1.768973 l 0.58047,-1.6492 0.59214,1.46311 c 0.824,2.036031 0.81335,2.074833 -0.56988,2.074833 -0.65076,0 -1.1832,-0.05392 -1.1832,-0.11977 z m 1.92713,-0.553113 c -0.005,-0.235507 -0.18317,-0.799949 -0.39604,-1.254297 l -0.38701,-0.826112 -0.35692,1.014575 c -0.49002,1.392945 -0.46322,1.494034 0.39604,1.494034 0.57711,0 0.75085,-0.09997 0.74393,-0.4282 z"
       style="fill:#000000;stroke-width:0.229431;fill-opacity:1" />
  </g>
</svg>
