<?xml version="1.0" encoding="UTF-8" standalone="no"?>
<!-- Generator: Adobe Illustrator 19.0.0, SVG Export Plug-In . SVG Version: 6.00 Build 0)  -->

<svg
   xmlns:dc="http://purl.org/dc/elements/1.1/"
   xmlns:cc="http://creativecommons.org/ns#"
   xmlns:rdf="http://www.w3.org/1999/02/22-rdf-syntax-ns#"
   xmlns:svg="http://www.w3.org/2000/svg"
   xmlns="http://www.w3.org/2000/svg"
   xmlns:sodipodi="http://sodipodi.sourceforge.net/DTD/sodipodi-0.dtd"
   xmlns:inkscape="http://www.inkscape.org/namespaces/inkscape"
   version="1.1"
   id="Capa_1"
   x="0px"
   y="0px"
   viewBox="0 0 64 18"
   xml:space="preserve"
   sodipodi:docname="move-down.svg"
   width="64"
   height="18"
   inkscape:version="0.92.2 (unknown)"><metadata
     id="metadata43"><rdf:RDF><cc:Work
         rdf:about=""><dc:format>image/svg+xml</dc:format><dc:type
           rdf:resource="http://purl.org/dc/dcmitype/StillImage" /><dc:title></dc:title></cc:Work></rdf:RDF></metadata><defs
     id="defs41"><symbol
       id="forward"
       class="Video-Player-Icons"><title
         id="title15724">forward</title><path
         transform="matrix(0.05,0,0,-0.05,0,76.8)"
         d="m 45,-115 q -19,-19 -32,-13 -13,6 -13,32 v 1472 q 0,26 13,32 13,6 32,-13 L 755,685 q 8,-8 13,-19 v 710 q 0,26 13,32 13,6 32,-13 l 710,-710 q 19,-19 19,-45 0,-26 -19,-45 L 813,-115 q -19,-19 -32,-13 -13,6 -13,32 v 710 q -5,-10 -13,-19 z"
         id="path15726"
         inkscape:connector-curvature="0" /></symbol><symbol
       id="arrow-up"
       class="Directional-Icons"><title
         id="title15814">arrow-up</title><path
         transform="matrix(0.05,0,0,-0.05,0,76.8)"
         d="m 1611,565 q 0,-51 -37,-90 l -75,-75 q -38,-38 -91,-38 -54,0 -90,38 L 1024,693 V -11 q 0,-52 -37.5,-84.5 Q 949,-128 896,-128 H 768 q -53,0 -90.5,32.5 Q 640,-63 640,-11 V 693 L 346,400 q -36,-38 -90,-38 -54,0 -90,38 l -75,75 q -38,38 -38,90 0,53 38,91 l 651,651 q 35,37 90,37 54,0 91,-37 l 651,-651 q 37,-39 37,-91 z"
         id="path15816"
         inkscape:connector-curvature="0" /></symbol><symbol
       id="sort-asc"
       class="Web-Application-Icons"><title
         id="title16339">Sort Ascending</title><path
         transform="matrix(0.05,0,0,-0.05,0,76.8)"
         d="m 1024,832 q 0,-26 -19,-45 -19,-19 -45,-19 H 64 q -26,0 -45,19 -19,19 -19,45 0,26 19,45 l 448,448 q 19,19 45,19 26,0 45,-19 l 448,-448 q 19,-19 19,-45 z"
         id="path16341"
         inkscape:connector-curvature="0" /></symbol></defs><sodipodi:namedview
     pagecolor="#ffffff"
     bordercolor="#666666"
     borderopacity="1"
     objecttolerance="10"
     gridtolerance="10"
     guidetolerance="10"
     inkscape:pageopacity="0"
     inkscape:pageshadow="2"
     inkscape:window-width="1325"
     inkscape:window-height="744"
     id="namedview39"
     showgrid="false"
     fit-margin-top="0"
     fit-margin-left="0"
     fit-margin-right="0"
     fit-margin-bottom="0"
     inkscape:snap-bbox="true"
     inkscape:snap-smooth-nodes="true"
     inkscape:object-paths="true"
     inkscape:snap-intersection-paths="true"
     inkscape:object-nodes="true"
     inkscape:zoom="3.6875"
     inkscape:cx="8.46988"
     inkscape:cy="57.518231"
     inkscape:window-x="41"
     inkscape:window-y="24"
     inkscape:window-maximized="1"
     inkscape:current-layer="Capa_1" /><g
     id="g8"
     transform="translate(477.94916,-540.22033)" /><g
     id="g10"
     transform="translate(477.94916,-540.22033)" /><g
     id="g12"
     transform="translate(477.94916,-540.22033)" /><g
     id="g14"
     transform="translate(477.94916,-540.22033)" /><g
     id="g16"
     transform="translate(477.94916,-540.22033)" /><g
     id="g18"
     transform="translate(477.94916,-540.22033)" /><g
     id="g20"
     transform="translate(477.94916,-540.22033)" /><g
     id="g22"
     transform="translate(477.94916,-540.22033)" /><g
     id="g24"
     transform="translate(477.94916,-540.22033)" /><g
     id="g26"
     transform="translate(477.94916,-540.22033)" /><g
     id="g28"
     transform="translate(477.94916,-540.22033)" /><g
     id="g30"
     transform="translate(477.94916,-540.22033)" /><g
     id="g32"
     transform="translate(477.94916,-540.22033)" /><g
     id="g34"
     transform="translate(477.94916,-540.22033)" /><g
     id="g36"
     transform="translate(477.94916,-540.22033)" /><g
     id="g7077"
     transform="matrix(1,0,0,-1,0,9.3050846)"><path
       sodipodi:nodetypes="cc"
       inkscape:connector-curvature="0"
       id="path857"
       d="M 7.8507227,8.365259 H 54.522159"
       style="fill:#191970;fill-rule:evenodd;stroke:#191971;stroke-width:1.01125479px;stroke-linecap:butt;stroke-linejoin:miter;stroke-opacity:1" /><path
       inkscape:connector-curvature="0"
       id="path82951"
       d="m 37.803907,-1.963443 c 6.329222,6.3074 6.800923,6.942429 5.857576,7.885776 C 43.418066,6.16575 40.276055,6.247757 31.193158,6.247757 H 19.050257 L 18.617952,5.587976 C 18.303595,5.108205 18.259595,4.793753 18.456683,4.435434 18.925274,3.583505 30.84289,-8.125124 31.241434,-8.125124 c 0.208711,0 3.161824,2.772756 6.562473,6.161681 z"
       style="opacity:0.93000034;fill:#191970;fill-opacity:1;fill-rule:evenodd;stroke:#191971;stroke-width:0.27118644;stroke-linecap:round;stroke-linejoin:round;stroke-miterlimit:4;stroke-dasharray:none;stroke-dashoffset:0;stroke-opacity:1" /></g></svg>