<?xml version="1.0" encoding="UTF-8" standalone="no"?>
<!-- Created with Inkscape (http://www.inkscape.org/) -->

<svg
   xmlns:dc="http://purl.org/dc/elements/1.1/"
   xmlns:cc="http://creativecommons.org/ns#"
   xmlns:rdf="http://www.w3.org/1999/02/22-rdf-syntax-ns#"
   xmlns:svg="http://www.w3.org/2000/svg"
   xmlns="http://www.w3.org/2000/svg"
   xmlns:sodipodi="http://sodipodi.sourceforge.net/DTD/sodipodi-0.dtd"
   xmlns:inkscape="http://www.inkscape.org/namespaces/inkscape"
   width="40.000004"
   height="40.000004"
   viewBox="0 0 10.583334 10.583334"
   version="1.1"
   id="svg1475"
   inkscape:version="0.92.2 (unknown)"
   sodipodi:docname="plus-white.svg">
  <defs
     id="defs1469">
    <symbol
       id="symbol10617">
      <title
         id="title10613">Control Point</title>
      <path
         inkscape:connector-curvature="0"
         d="M 6.8791667,3.7041667 H 5.8208333 V 5.8208333 H 3.7041667 V 6.8791667 H 5.8208333 V 8.9958333 H 6.8791667 V 6.8791667 H 8.9958333 V 5.8208333 H 6.8791667 Z M 6.35,1.0583333 c -2.9183542,0 -5.2916667,2.3733125 -5.2916667,5.2916667 0,2.9183542 2.3733125,5.291667 5.2916667,5.291667 2.9183542,0 5.291667,-2.3733128 5.291667,-5.291667 0,-2.9183542 -2.3733128,-5.2916667 -5.291667,-5.2916667 z m 0,9.5249997 c -2.333625,0 -4.2333333,-1.899708 -4.2333333,-4.233333 0,-2.333625 1.8997083,-4.2333333 4.2333333,-4.2333333 2.333625,0 4.233333,1.8997083 4.233333,4.2333333 0,2.333625 -1.899708,4.233333 -4.233333,4.233333 z"
         style="stroke:none;stroke-width:0.26458332"
         id="path10615" />
    </symbol>
  </defs>
  <sodipodi:namedview
     id="base"
     pagecolor="#ffffff"
     bordercolor="#666666"
     borderopacity="1.0"
     inkscape:pageopacity="0.0"
     inkscape:pageshadow="2"
     inkscape:zoom="11.2"
     inkscape:cx="20.308403"
     inkscape:cy="23.724277"
     inkscape:document-units="mm"
     inkscape:current-layer="layer1"
     showgrid="false"
     fit-margin-top="0"
     fit-margin-left="0"
     fit-margin-right="0"
     fit-margin-bottom="0"
     units="px"
     inkscape:window-width="1325"
     inkscape:window-height="744"
     inkscape:window-x="41"
     inkscape:window-y="24"
     inkscape:window-maximized="1" />
  <metadata
     id="metadata1472">
    <rdf:RDF>
      <cc:Work
         rdf:about="">
        <dc:format>image/svg+xml</dc:format>
        <dc:type
           rdf:resource="http://purl.org/dc/dcmitype/StillImage" />
        <dc:title></dc:title>
      </cc:Work>
    </rdf:RDF>
  </metadata>
  <g
     inkscape:label="Layer 1"
     inkscape:groupmode="layer"
     id="layer1"
     transform="translate(-63.5,-142.78571)">
    <g
       id="g83626"
       transform="translate(1.0394351,0.07086585)"
       style="fill:#ffffff">
      <path
         inkscape:connector-curvature="0"
         id="path83602"
         d="m 67.335078,153.27072 c -0.669728,-0.0584 -1.284071,-0.22931 -1.889881,-0.52561 -0.541526,-0.26486 -0.945131,-0.5507 -1.379607,-0.97706 -0.451823,-0.44339 -0.768643,-0.88338 -1.054746,-1.46482 -0.7064,-1.43558 -0.710397,-3.12465 -0.01081,-4.5698 1.164874,-2.40632 3.885851,-3.56774 6.411438,-2.73665 0.792385,0.26075 1.455158,0.67322 2.070521,1.28858 0.693575,0.69358 1.139004,1.46473 1.378748,2.38696 0.128787,0.49541 0.165544,0.79178 0.165544,1.33473 0,0.54296 -0.03676,0.83932 -0.165544,1.33473 -0.131234,0.50482 -0.327679,0.96853 -0.59463,1.40363 -0.976523,1.59162 -2.719582,2.56306 -4.553053,2.53751 -0.155915,-0.002 -0.326004,-0.008 -0.377976,-0.0122 z m 0.97326,-1.05968 c 0.963189,-0.12588 1.816837,-0.55816 2.501256,-1.26661 1.731809,-1.79261 1.545468,-4.67878 -0.40346,-6.24902 -1.257772,-1.01339 -3.010672,-1.21542 -4.471286,-0.51535 -1.22675,0.58798 -2.075782,1.68632 -2.348381,3.03797 -0.04686,0.23236 -0.05431,0.3406 -0.05431,0.78902 0,0.44842 0.0075,0.55666 0.05431,0.78903 0.370288,1.83602 1.815538,3.18618 3.66693,3.42567 0.254788,0.033 0.760058,0.0278 1.054941,-0.0107 z"
         style="opacity:1;fill:#ffffff;fill-opacity:1;fill-rule:evenodd;stroke:#ffffff;stroke-width:0.02362351;stroke-linecap:round;stroke-linejoin:round;stroke-miterlimit:4;stroke-dasharray:none;stroke-dashoffset:0;stroke-opacity:1" />
      <path
         inkscape:connector-curvature="0"
         id="path83604"
         d="m 67.228772,149.57802 v -1.06306 H 66.177526 65.12628 v -0.50791 -0.5079 h 1.051246 1.051246 v -1.06306 -1.06306 h 0.519474 0.519474 l 0.0061,1.05715 0.0061,1.05715 1.057152,0.006 1.057152,0.006 v 0.50742 0.50742 l -1.057152,0.006 -1.057152,0.006 -0.0061,1.05715 -0.0061,1.05715 h -0.519474 -0.519474 z"
         style="opacity:1;fill:#ffffff;fill-opacity:1;fill-rule:evenodd;stroke:#ffffff;stroke-width:0.02362351;stroke-linecap:round;stroke-linejoin:round;stroke-miterlimit:4;stroke-dasharray:none;stroke-dashoffset:0;stroke-opacity:1" />
    </g>
  </g>
</svg>
