<?xml version="1.0" encoding="UTF-8" standalone="no"?>
<!-- Generator: Adobe Illustrator 19.1.0, SVG Export Plug-In . SVG Version: 6.00 Build 0)  -->

<svg
   xmlns:dc="http://purl.org/dc/elements/1.1/"
   xmlns:cc="http://creativecommons.org/ns#"
   xmlns:rdf="http://www.w3.org/1999/02/22-rdf-syntax-ns#"
   xmlns:svg="http://www.w3.org/2000/svg"
   xmlns="http://www.w3.org/2000/svg"
   xmlns:sodipodi="http://sodipodi.sourceforge.net/DTD/sodipodi-0.dtd"
   xmlns:inkscape="http://www.inkscape.org/namespaces/inkscape"
   version="1.1"
   id="Capa_1"
   x="0px"
   y="0px"
   viewBox="0 0 64.000002 45.000002"
   xml:space="preserve"
   sodipodi:docname="schedule-silver.svg"
   width="64"
   height="45"
   inkscape:version="0.92.2 (unknown)"><metadata
     id="metadata1201"><rdf:RDF><cc:Work
         rdf:about=""><dc:format>image/svg+xml</dc:format><dc:type
           rdf:resource="http://purl.org/dc/dcmitype/StillImage" /><dc:title></dc:title></cc:Work></rdf:RDF></metadata><defs
     id="defs1199" /><sodipodi:namedview
     pagecolor="#ffffff"
     bordercolor="#666666"
     borderopacity="1"
     objecttolerance="10"
     gridtolerance="10"
     guidetolerance="10"
     inkscape:pageopacity="0"
     inkscape:pageshadow="2"
     inkscape:window-width="1325"
     inkscape:window-height="744"
     id="namedview1197"
     showgrid="false"
     fit-margin-top="0"
     fit-margin-left="0"
     fit-margin-right="0"
     fit-margin-bottom="0"
     inkscape:zoom="4.4943944"
     inkscape:cx="70.708957"
     inkscape:cy="53.410225"
     inkscape:window-x="41"
     inkscape:window-y="24"
     inkscape:window-maximized="1"
     inkscape:current-layer="Capa_1" /><path
     d="M 6.28775e-7,0.04051878 V 44.959481 H 63.999999 V 0.04051878 Z M 61.304862,42.264523 H 2.6951384 V 2.7358362 H 61.304862 Z"
     id="path1118"
     inkscape:connector-curvature="0"
     style="stroke-width:0.17967585;fill:#dcdcdc;fill-opacity:1" /><path
     d="m 18.813859,36.641388 c 7.401747,0 13.423583,-6.022016 13.423583,-13.423763 0,-7.401746 -6.021836,-13.4235824 -13.423583,-13.4235824 -7.401747,0 -13.4235829,6.0216564 -13.4235829,13.4235824 0,7.401927 6.0218359,13.423763 13.4235829,13.423763 z m 0,-24.152208 c 5.915648,0 10.728445,4.812798 10.728445,10.728445 0,5.915828 -4.812797,10.728625 -10.728445,10.728625 -5.915648,0 -10.7284451,-4.812618 -10.7284451,-10.728625 0,-5.915468 4.8127971,-10.728445 10.7284451,-10.728445 z"
     id="path1120"
     inkscape:connector-curvature="0"
     style="stroke-width:0.17967585;fill:#dcdcdc;fill-opacity:1" /><polygon
     points="131.669,189.592 131.669,174.592 112.21,174.592 112.21,140.182 97.21,140.182 97.21,189.592 "
     id="polygon1122"
     transform="matrix(0.17967585,0,0,0.17967585,6.28775e-7,-9.4999095)"
     style="fill:#dcdcdc;fill-opacity:1" /><path
     d="M 57.496273,6.7034383 H 34.737272 V 17.0348 H 57.496273 Z M 48.113061,9.3985761 V 14.339662 H 44.120304 V 9.3985761 c 0,1.797e-4 3.992757,1.797e-4 3.992757,0 z m -10.680652,0 h 3.992937 V 14.339662 H 37.432409 Z M 54.801135,14.339842 H 50.808198 V 9.3987558 h 3.992937 z"
     id="path1124"
     inkscape:connector-curvature="0"
     style="stroke-width:0.17967585;fill:#dcdcdc;fill-opacity:1" /><rect
     x="35.036793"
     y="21.152433"
     width="22.010292"
     height="2.6951377"
     id="rect1126"
     style="stroke-width:0.17967585;fill:#dcdcdc;fill-opacity:1" /><rect
     x="35.036793"
     y="27.141747"
     width="22.010292"
     height="2.6951377"
     id="rect1128"
     style="stroke-width:0.17967585;fill:#dcdcdc;fill-opacity:1" /><rect
     x="35.036793"
     y="33.131062"
     width="22.010292"
     height="2.6951377"
     id="rect1130"
     style="stroke-width:0.17967585;fill:#dcdcdc;fill-opacity:1" /><g
     id="g1166"
     transform="matrix(0.17967585,0,0,0.17967585,0,-9.4593927)"
     style="opacity:0.79;fill:#dcdcdc" /><g
     id="g1168"
     transform="matrix(0.17967585,0,0,0.17967585,0,-9.4593927)"
     style="opacity:0.79;fill:#dcdcdc" /><g
     id="g1170"
     transform="matrix(0.17967585,0,0,0.17967585,0,-9.4593927)"
     style="opacity:0.79;fill:#dcdcdc" /><g
     id="g1172"
     transform="matrix(0.17967585,0,0,0.17967585,0,-9.4593927)"
     style="opacity:0.79;fill:#dcdcdc" /><g
     id="g1174"
     transform="matrix(0.17967585,0,0,0.17967585,0,-9.4593927)"
     style="opacity:0.79;fill:#dcdcdc" /><g
     id="g1176"
     transform="matrix(0.17967585,0,0,0.17967585,0,-9.4593927)"
     style="opacity:0.79;fill:#dcdcdc" /><g
     id="g1178"
     transform="matrix(0.17967585,0,0,0.17967585,0,-9.4593927)"
     style="opacity:0.79;fill:#dcdcdc" /><g
     id="g1180"
     transform="matrix(0.17967585,0,0,0.17967585,0,-9.4593927)"
     style="opacity:0.79;fill:#dcdcdc" /><g
     id="g1182"
     transform="matrix(0.17967585,0,0,0.17967585,0,-9.4593927)"
     style="opacity:0.79;fill:#dcdcdc" /><g
     id="g1184"
     transform="matrix(0.17967585,0,0,0.17967585,0,-9.4593927)"
     style="opacity:0.79;fill:#dcdcdc" /><g
     id="g1186"
     transform="matrix(0.17967585,0,0,0.17967585,0,-9.4593927)"
     style="opacity:0.79;fill:#dcdcdc" /><g
     id="g1188"
     transform="matrix(0.17967585,0,0,0.17967585,0,-9.4593927)"
     style="opacity:0.79;fill:#dcdcdc" /><g
     id="g1190"
     transform="matrix(0.17967585,0,0,0.17967585,0,-9.4593927)"
     style="opacity:0.79;fill:#dcdcdc" /><g
     id="g1192"
     transform="matrix(0.17967585,0,0,0.17967585,0,-9.4593927)"
     style="opacity:0.79;fill:#dcdcdc" /><g
     id="g1194"
     transform="matrix(0.17967585,0,0,0.17967585,0,-9.4593927)"
     style="opacity:0.79;fill:#dcdcdc" /></svg>