<?xml version="1.0" encoding="UTF-8" standalone="no"?>
<!-- Generator: Adobe Illustrator 19.0.0, SVG Export Plug-In . SVG Version: 6.00 Build 0)  -->

<svg
   xmlns:dc="http://purl.org/dc/elements/1.1/"
   xmlns:cc="http://creativecommons.org/ns#"
   xmlns:rdf="http://www.w3.org/1999/02/22-rdf-syntax-ns#"
   xmlns:svg="http://www.w3.org/2000/svg"
   xmlns="http://www.w3.org/2000/svg"
   xmlns:sodipodi="http://sodipodi.sourceforge.net/DTD/sodipodi-0.dtd"
   xmlns:inkscape="http://www.inkscape.org/namespaces/inkscape"
   version="1.1"
   id="Capa_1"
   x="0px"
   y="0px"
   viewBox="0 0 64 64"
   xml:space="preserve"
   sodipodi:docname="shade-up.svg"
   width="64"
   height="64"
   inkscape:version="0.92.2 (unknown)"><metadata
     id="metadata43"><rdf:RDF><cc:Work
         rdf:about=""><dc:format>image/svg+xml</dc:format><dc:type
           rdf:resource="http://purl.org/dc/dcmitype/StillImage" /><dc:title /></cc:Work></rdf:RDF></metadata><defs
     id="defs41"><symbol
       id="forward"
       class="Video-Player-Icons"><title
         id="title15724">forward</title><path
         transform="matrix(0.05,0,0,-0.05,0,76.8)"
         d="M45 -115q-19 -19 -32 -13t-13 32v1472q0 26 13 32t32 -13l710 -710q8 -8 13 -19v710q0 26 13 32t32 -13l710 -710q19 -19 19 -45t-19 -45l-710 -710q-19 -19 -32 -13t-13 32v710q-5 -10 -13 -19z"
         id="path15726" /></symbol><symbol
       id="arrow-up"
       class="Directional-Icons"><title
         id="title15814">arrow-up</title><path
         transform="matrix(0.05,0,0,-0.05,0,76.8)"
         d="M1611 565q0 -51 -37 -90l-75 -75q-38 -38 -91 -38q-54 0 -90 38l-294 293v-704q0 -52 -37.5 -84.5t-90.5 -32.5h-128q-53 0 -90.5 32.5t-37.5 84.5v704l-294 -293q-36 -38 -90 -38t-90 38l-75 75q-38 38 -38 90q0 53 38 91l651 651q35 37 90 37q54 0 91 -37l651 -651 q37 -39 37 -91z"
         id="path15816" /></symbol><symbol
       id="sort-asc"
       class="Web-Application-Icons"><title
         id="title16339">Sort Ascending</title><path
         transform="matrix(0.05,0,0,-0.05,0,76.8)"
         d="M1024 832q0 -26 -19 -45t-45 -19h-896q-26 0 -45 19t-19 45t19 45l448 448q19 19 45 19t45 -19l448 -448q19 -19 19 -45z"
         id="path16341" /></symbol></defs><sodipodi:namedview
     pagecolor="#ffffff"
     bordercolor="#666666"
     borderopacity="1"
     objecttolerance="10"
     gridtolerance="10"
     guidetolerance="10"
     inkscape:pageopacity="0"
     inkscape:pageshadow="2"
     inkscape:window-width="1325"
     inkscape:window-height="744"
     id="namedview39"
     showgrid="false"
     fit-margin-top="0"
     fit-margin-left="0"
     fit-margin-right="0"
     fit-margin-bottom="0"
     inkscape:snap-bbox="true"
     inkscape:snap-smooth-nodes="true"
     inkscape:object-paths="true"
     inkscape:snap-intersection-paths="true"
     inkscape:object-nodes="true"
     inkscape:zoom="3.6875"
     inkscape:cx="8.1986935"
     inkscape:cy="57.518231"
     inkscape:window-x="41"
     inkscape:window-y="24"
     inkscape:window-maximized="1"
     inkscape:current-layer="Capa_1" /><g
     id="g8"
     transform="translate(477.94916,-494.22033)" /><g
     id="g10"
     transform="translate(477.94916,-494.22033)" /><g
     id="g12"
     transform="translate(477.94916,-494.22033)" /><g
     id="g14"
     transform="translate(477.94916,-494.22033)" /><g
     id="g16"
     transform="translate(477.94916,-494.22033)" /><g
     id="g18"
     transform="translate(477.94916,-494.22033)" /><g
     id="g20"
     transform="translate(477.94916,-494.22033)" /><g
     id="g22"
     transform="translate(477.94916,-494.22033)" /><g
     id="g24"
     transform="translate(477.94916,-494.22033)" /><g
     id="g26"
     transform="translate(477.94916,-494.22033)" /><g
     id="g28"
     transform="translate(477.94916,-494.22033)" /><g
     id="g30"
     transform="translate(477.94916,-494.22033)" /><g
     id="g32"
     transform="translate(477.94916,-494.22033)" /><g
     id="g34"
     transform="translate(477.94916,-494.22033)" /><g
     id="g36"
     transform="translate(477.94916,-494.22033)" /><rect
     style="opacity:1;fill:#000000;fill-opacity:1;fill-rule:evenodd;stroke:#000000;stroke-width:0.42684722;stroke-linecap:round;stroke-linejoin:round;stroke-miterlimit:4;stroke-dasharray:none;stroke-dashoffset:0;stroke-opacity:1"
     id="rect855"
     width="59.573154"
     height="5.1981525"
     x="2.2134228"
     y="58.588425"
     ry="0.37134254" /><rect
     style="opacity:0.93000034;fill:none;fill-opacity:1;fill-rule:evenodd;stroke:#000000;stroke-width:1.3285619;stroke-linecap:round;stroke-linejoin:round;stroke-miterlimit:4;stroke-dasharray:none;stroke-dashoffset:0;stroke-opacity:1"
     id="rect853"
     width="46.671436"
     height="62.67144"
     x="8.6642818"
     y="0.66427994"
     ry="1.6575389" /><path
     style="fill:#000000;fill-rule:evenodd;stroke:#000000;stroke-width:1.01125479px;stroke-linecap:butt;stroke-linejoin:miter;stroke-opacity:1"
     d="M 8.6642819,55.195881 H 55.335718"
     id="path857"
     inkscape:connector-curvature="0"
     sodipodi:nodetypes="cc" /><path
     style="opacity:0.93000034;fill:#000000;fill-opacity:1;fill-rule:evenodd;stroke:#000000;stroke-width:0.27118644;stroke-linecap:round;stroke-linejoin:round;stroke-miterlimit:4;stroke-dasharray:none;stroke-dashoffset:0;stroke-opacity:1"
     d="m 38.617466,44.867179 c 6.329222,6.3074 6.800923,6.942429 5.857576,7.885776 -0.243417,0.243417 -3.385428,0.325424 -12.468325,0.325424 H 19.863816 l -0.432305,-0.659781 c -0.314357,-0.479771 -0.358357,-0.794223 -0.161269,-1.152542 0.468591,-0.851929 12.386207,-12.560558 12.784751,-12.560558 0.208711,0 3.161824,2.772756 6.562473,6.161681 z"
     id="path82951"
     inkscape:connector-curvature="0" /></svg>